<?xml version="1.0" encoding="UTF-8"?>
<svg version="1.1" xmlns="http://www.w3.org/2000/svg" width="860" height="425">
<path d="M0 0 C23.18950219 -0.82503243 45.40962358 5.67054985 63.0546875 21.0078125 C76.31314569 33.51187762 84.74086825 50.70701966 85.6875 68.9609375 C86.28374484 89.39484594 82.09528357 107.93981442 68.53125 123.88671875 C51.0223897 142.04064233 28.1736342 149.9800803 3.42163086 150.546875 C-22.4968064 150.74176573 -44.75035613 144.7555997 -63.6953125 126.1953125 C-64.32308594 125.60363281 -64.95085937 125.01195312 -65.59765625 124.40234375 C-74.03895031 115.73135461 -79.39224523 102.92904314 -81.6953125 91.1953125 C-81.9221875 90.0403125 -82.1490625 88.8853125 -82.3828125 87.6953125 C-83.80599519 71.75566638 -80.83363879 57.47196509 -73.6953125 43.1953125 C-85.9053125 42.8653125 -98.1153125 42.5353125 -110.6953125 42.1953125 C-111.0665625 46.7946875 -111.4378125 51.3940625 -111.8203125 56.1328125 C-113.30993053 74.21482468 -114.9548121 92.28264518 -116.6163559 110.34950638 C-116.8202625 112.56976806 -117.02330927 114.79010689 -117.22613525 117.01046753 C-117.55029519 120.55719966 -117.87686668 124.10370193 -118.20529175 127.65004158 C-118.38619717 129.60831936 -118.56507233 131.56678436 -118.74389648 133.5252533 C-118.85435303 134.71107498 -118.96480957 135.89689667 -119.07861328 137.11865234 C-119.22159348 138.6678688 -119.22159348 138.6678688 -119.36746216 140.24838257 C-119.7008261 143.24487233 -120.19965344 146.22135814 -120.6953125 149.1953125 C-139.8353125 149.1953125 -158.9753125 149.1953125 -178.6953125 149.1953125 C-178.11792194 142.84401632 -177.54064213 136.5938598 -176.71142578 130.28735352 C-176.61856293 129.57660172 -176.52570007 128.86584991 -176.43002319 128.13356018 C-176.12739229 125.82182233 -175.82161619 123.51051402 -175.515625 121.19921875 C-175.29989908 119.55893254 -175.08431563 117.91862758 -174.86886597 116.27830505 C-174.41805124 112.84981924 -173.96570233 109.42154046 -173.51220703 105.9934082 C-172.93920248 101.66113429 -172.36972575 97.3284059 -171.80140877 92.99551487 C-171.35658504 89.60695085 -170.90995866 86.21862616 -170.46282578 82.83036613 C-170.25267158 81.2365067 -170.0430054 79.64258282 -169.83389664 78.04858589 C-168.26120829 66.07267455 -166.4875526 54.14357982 -164.6953125 42.1953125 C-206.2753125 42.6903125 -206.2753125 42.6903125 -248.6953125 43.1953125 C-248.1088482 47.43166628 -248.1088482 47.43166628 -244.51171875 49.3515625 C-243.09959159 50.14332245 -241.68111472 50.92382192 -240.2578125 51.6953125 C-233.72195909 55.39280611 -227.33664139 59.24324957 -221.0703125 63.3828125 C-219.9711853 64.094375 -219.9711853 64.094375 -218.84985352 64.8203125 C-209.33666562 71.15008628 -201.55573481 79.30093309 -198.203125 90.45703125 C-195.54414673 104.79506023 -198.54367046 117.61119445 -206.7265625 129.66015625 C-215.4797288 140.9315946 -227.83637723 146.7706323 -241.6953125 149.1953125 C-255.17261256 150.68036261 -268.79962185 150.35910239 -282.3359375 150.36328125 C-284.79595966 150.36649962 -287.25598164 150.36986411 -289.71600342 150.37336731 C-294.83948207 150.3793195 -299.96294393 150.38121083 -305.08642578 150.38061523 C-311.66042515 150.38051286 -318.23431834 150.39425951 -324.80829239 150.41138744 C-329.87305196 150.42247432 -334.93778538 150.42453561 -340.00255585 150.42400551 C-342.42832562 150.42518699 -344.85409604 150.42961814 -347.27985382 150.43733788 C-350.65442066 150.44708737 -354.02875001 150.44428168 -357.40332031 150.43823242 C-358.90869102 150.44666168 -358.90869102 150.44666168 -360.44447327 150.45526123 C-361.81909981 150.4489695 -361.81909981 150.4489695 -363.22149658 150.44255066 C-364.41595335 150.44336781 -364.41595335 150.44336781 -365.63454056 150.44420147 C-367.6953125 150.1953125 -367.6953125 150.1953125 -370.6953125 148.1953125 C-370.39351074 147.45595459 -370.09170898 146.71659668 -369.78076172 145.95483398 C-368.63201386 143.13989808 -367.48386654 140.3247179 -366.33590698 137.50946045 C-365.57363834 135.64096489 -364.81041425 133.77286159 -364.04711914 131.90478516 C-361.90098654 126.64742743 -359.75664258 121.39051852 -357.69921875 116.09765625 C-357.42674316 115.39906494 -357.15426758 114.70047363 -356.87353516 113.98071289 C-356.18218592 112.19765166 -355.49897988 110.41143901 -354.81640625 108.625 C-353.6953125 106.1953125 -353.6953125 106.1953125 -351.6953125 105.1953125 C-349.13808677 105.11271552 -346.60880793 105.09051341 -344.05200195 105.11352539 C-343.26316116 105.11659195 -342.47432037 105.11965851 -341.66157532 105.12281799 C-339.94495449 105.12998203 -338.22834189 105.13937667 -336.51174355 105.15071297 C-333.7918557 105.1680756 -331.07202642 105.17839459 -328.35209656 105.18663025 C-320.61724291 105.21110175 -312.88246766 105.24653336 -305.14770508 105.29125977 C-300.41864228 105.31811009 -295.6896256 105.33511098 -290.96050072 105.34612846 C-289.16043589 105.35232249 -287.36037986 105.36230802 -285.56035805 105.37620735 C-283.03537864 105.39552049 -280.51063927 105.40233353 -277.9855957 105.40649414 C-276.8779184 105.41963654 -276.8779184 105.41963654 -275.74786377 105.43304443 C-270.98975949 105.42413754 -267.16369583 104.67405724 -262.6953125 103.1953125 C-262.6953125 101.8753125 -262.6953125 100.5553125 -262.6953125 99.1953125 C-264.6098028 97.27670645 -264.6098028 97.27670645 -267.2578125 95.5703125 C-268.26328125 94.87421875 -269.26875 94.178125 -270.3046875 93.4609375 C-271.43344808 92.70356701 -272.56371245 91.94843389 -273.6953125 91.1953125 C-274.57026367 90.61040039 -274.57026367 90.61040039 -275.46289062 90.01367188 C-277.3097844 88.78041702 -279.15863513 87.55014013 -281.0078125 86.3203125 C-282.92710241 85.04185107 -284.845995 83.76281352 -286.76367188 82.48193359 C-288.05143982 81.62418119 -289.34181633 80.77033226 -290.63476562 79.92041016 C-298.07889476 75.00372568 -304.75228563 70.49486719 -308.6953125 62.1953125 C-309.02917969 61.51210937 -309.36304688 60.82890625 -309.70703125 60.125 C-313.65247091 50.44885385 -312.59847307 39.51593065 -308.94921875 29.94140625 C-303.18206743 17.31116521 -293.52050753 9.24879464 -280.6953125 4.1953125 C-268.95704622 0.85683693 -257.39228527 0.77679751 -245.28173828 0.83886719 C-243.27132071 0.83807462 -241.2609033 0.83597219 -239.25048828 0.83267212 C-233.83818423 0.82757899 -228.42607328 0.84098604 -223.01380014 0.85819912 C-217.33951724 0.87331918 -211.66523596 0.87206287 -205.99093628 0.87286377 C-196.48074068 0.87654387 -186.9706178 0.89145648 -177.46044922 0.9140625 C-165.23867455 0.94305423 -153.01695798 0.95329854 -140.79515266 0.9577446 C-130.28539742 0.96171588 -119.77565488 0.97420886 -109.26590872 0.98809147 C-105.8847834 0.99219459 -102.50365854 0.99511781 -99.12253189 0.99788666 C-93.82830818 1.00276379 -88.53412009 1.01294007 -83.23991394 1.02732468 C-81.29235531 1.03186174 -79.34479188 1.03468964 -77.39722824 1.03573227 C-74.75120226 1.03746747 -72.10526662 1.04532188 -69.45925903 1.05487061 C-68.28834581 1.05357088 -68.28834581 1.05357088 -67.09377778 1.0522449 C-61.80952178 1.08110322 -61.80952178 1.08110322 -60.6953125 2.1953125 C-60.67858989 3.97824312 -60.73248323 5.76193586 -60.81640625 7.54296875 C-60.86474609 8.62255859 -60.91308594 9.70214844 -60.96289062 10.81445312 C-61.01896484 11.95076172 -61.07503906 13.08707031 -61.1328125 14.2578125 C-61.18501953 15.39798828 -61.23722656 16.53816406 -61.29101562 17.71289062 C-61.42116183 20.54061273 -61.55614129 23.3680225 -61.6953125 26.1953125 C-61.18234619 25.66566895 -60.66937988 25.13602539 -60.14086914 24.59033203 C-43.71003477 7.85164658 -23.0753444 1.21962708 0 0 Z M-23.19140625 52.97265625 C-27.96722155 59.90254848 -30.57793942 68.81035677 -29.6953125 77.1953125 C-27.64620755 88.1535694 -24.02971658 95.74864213 -14.6953125 102.1953125 C-6.16680273 106.48472523 2.07498565 107.5816712 11.265625 104.9453125 C19.44005112 101.93862703 25.70557704 97.61845644 29.5234375 89.65234375 C33.7390903 78.97770863 34.17196836 70.07486138 30.3046875 59.1953125 C27.16589484 52.24259065 21.9016066 46.31696747 14.91796875 43.09375 C1.23125643 38.49570222 -13.68438279 41.67841167 -23.19140625 52.97265625 Z " fill="#F8F8F8" transform="translate(410.6953125,37.8046875)"/>
<path d="M0 0 C0 -3.3 0 -6.6 0 -10 C16.23055283 -10.11634824 32.46093033 -10.20527872 48.69180012 -10.25906086 C56.23014443 -10.28471009 63.76822294 -10.31960196 71.30639648 -10.37719727 C77.88597747 -10.42744397 84.46536574 -10.45938716 91.04513329 -10.47044247 C94.52074759 -10.47689254 97.99581115 -10.49176355 101.47124672 -10.52865028 C134.27296687 -10.86351657 134.27296687 -10.86351657 148 -4 C148 -5.98 148 -7.96 148 -10 C207.4 -10 266.8 -10 328 -10 C337.17326333 19.81310582 337.17326333 19.81310582 341 32.9375 C341.84043643 35.81140571 342.68191532 38.6850058 343.5234375 41.55859375 C343.72971771 42.2636203 343.93599792 42.96864685 344.14852905 43.69503784 C345.55590217 48.50027806 346.97990675 53.30034662 348.4140625 58.09765625 C348.78789063 59.35006104 349.16171875 60.60246582 349.546875 61.89282227 C350.25044587 64.24682129 350.9560805 66.60020476 351.6640625 68.95288086 C351.9734375 69.98936768 352.2828125 71.02585449 352.6015625 72.09375 C352.87307129 72.99802734 353.14458008 73.90230469 353.42431641 74.83398438 C354 77 354 77 354 79 C338.16 79.495 338.16 79.495 322 80 C322.99 83.63 323.98 87.26 325 91 C325 91.99 325 92.98 325 94 C336.55 94 348.1 94 360 94 C366.09011236 113.74672795 371.91544142 133.54235151 377.5 153.4375 C377.96288422 155.07957428 377.96288422 155.07957428 378.43511963 156.75482178 C379.32562839 159.91739342 380.21062196 163.08145409 381.09375 166.24609375 C381.35795746 167.18356949 381.62216492 168.12104523 381.89437866 169.08692932 C382.14257355 169.98177536 382.39076843 170.8766214 382.64648438 171.79858398 C382.8605896 172.56508774 383.07469482 173.33159149 383.29528809 174.12132263 C384.33833194 178.382052 385.13972823 182.69864117 386 187 C352.67 187.33 319.34 187.66 285 188 C286.98 190.64 288.96 193.28 291 196 C292.45126317 198.474758 293.79609158 200.87683201 295.0625 203.4375 C295.39902588 204.11417725 295.73555176 204.79085449 296.08227539 205.48803711 C306.56141118 227.37750854 307.05180946 249.28569621 299.609375 272.19921875 C297.56106208 277.03661794 294.70274453 281.49542579 292 286 C313.78 285.505 313.78 285.505 336 285 C339.24592019 291.49184038 342.32653754 297.87999974 345.1171875 304.5546875 C345.49145874 305.44242355 345.86572998 306.33015961 346.25134277 307.24479675 C347.46253229 310.12015404 348.6688726 312.99751609 349.875 315.875 C350.71803663 317.87957059 351.56130098 319.88404542 352.40478516 321.88842773 C359.20949467 338.06999094 365.98340665 354.26487298 372.70504761 370.48114014 C373.96503564 373.51979891 375.23501188 376.55356844 376.52050781 379.58154297 C376.98038086 380.66709473 377.44025391 381.75264648 377.9140625 382.87109375 C378.31834473 383.81782959 378.72262695 384.76456543 379.13916016 385.73999023 C380 388 380 388 380 390 C364.01291919 390.07044077 348.0258896 390.12315836 332.03869057 390.15543652 C324.6136312 390.17082986 317.18866889 390.19177298 309.76367188 390.22631836 C303.28335127 390.25645388 296.80310104 390.27562954 290.3227123 390.28226548 C286.89926321 390.2861374 283.47601525 390.29507422 280.05263138 390.31719017 C251.863975 390.47897362 229.72111958 386.88860941 205 373 C205.66 378.61 206.32 384.22 207 390 C137.37 390 67.74 390 -4 390 C-12 367 -12 367 -12 364 C-23.55 364 -35.1 364 -47 364 C-47.66 366.97 -48.32 369.94 -49 373 C-49.81817151 375.66861547 -50.65505979 378.3013458 -51.5625 380.9375 C-51.89411133 381.92459961 -51.89411133 381.92459961 -52.23242188 382.93164062 C-53.05280673 385.35313912 -53.85514587 387.71029174 -55 390 C-121.99 390 -188.98 390 -258 390 C-258.99 387.03 -259.98 384.06 -261 381 C-262.32 383.97 -263.64 386.94 -265 390 C-303.61 390 -342.22 390 -382 390 C-382 323.01 -382 256.02 -382 187 C-408.73 187.33 -435.46 187.66 -463 188 C-464 186 -464 186 -463.09472656 183.11206055 C-462.37494629 181.26801636 -462.37494629 181.26801636 -461.640625 179.38671875 C-461.38060196 178.71390366 -461.12057892 178.04108856 -460.85267639 177.34788513 C-460.28812231 175.88988636 -459.72002453 174.43325599 -459.14883423 172.97784424 C-458.2423512 170.66800988 -457.34493011 168.35484136 -456.44995117 166.04052734 C-455.22610308 162.87752099 -453.99898021 159.71581924 -452.76904297 156.55517578 C-450.25508174 150.08927361 -447.7773083 143.60980395 -445.3125 137.125 C-444.87212402 135.96798584 -444.43174805 134.81097168 -443.97802734 133.61889648 C-440.20454296 123.65147723 -436.61039319 113.62368015 -433.08325195 103.56689453 C-432.69226318 102.45685059 -432.30127441 101.34680664 -431.8984375 100.203125 C-431.55474121 99.21989258 -431.21104492 98.23666016 -430.85693359 97.22363281 C-430 95 -430 95 -429 94 C-427.55815707 93.87778475 -426.11056856 93.82227242 -424.66381836 93.79467773 C-423.7429393 93.77473251 -422.82206024 93.75478729 -421.87327576 93.73423767 C-420.37172691 93.70916893 -420.37172691 93.70916893 -418.83984375 93.68359375 C-417.82024063 93.66281265 -416.80063751 93.64203156 -415.75013733 93.62062073 C-412.47932952 93.55501148 -409.20843863 93.49618766 -405.9375 93.4375 C-403.72590272 93.39432558 -401.51431397 93.35071166 -399.30273438 93.30664062 C-393.86857849 93.1993186 -388.43433918 93.09757377 -383 93 C-383.34299133 92.53651657 -383.68598267 92.07303314 -384.03936768 91.59550476 C-384.48947205 90.97835098 -384.93957642 90.3611972 -385.40332031 89.7253418 C-385.84943665 89.11748337 -386.29555298 88.50962494 -386.75518799 87.88334656 C-388.63737603 85.03567772 -389.66717326 82.03637053 -390.75 78.8125 C-391.15734375 77.62269531 -391.5646875 76.43289062 -391.984375 75.20703125 C-396.97322762 59.45376969 -394.12030133 42.69338555 -387.4375 27.875 C-378.2424673 10.68932175 -363.27343892 -0.97870689 -344.89970398 -7.01925278 C-332.63675875 -10.52502145 -320.83564055 -10.53960474 -308.15234375 -10.45410156 C-305.78548197 -10.45297115 -303.41861879 -10.45361072 -301.05175781 -10.45587158 C-294.67261826 -10.45701209 -288.29378389 -10.43361054 -281.91471481 -10.40557575 C-275.90960456 -10.38300194 -269.90450454 -10.37907292 -263.89936078 -10.37496826 C-252.01748564 -10.36624792 -240.13572133 -10.33972169 -228.25390625 -10.30175781 C-216.72266183 -10.26495273 -205.19144768 -10.23668277 -193.66015625 -10.21972656 C-192.94748089 -10.21867567 -192.23480552 -10.21762477 -191.50053394 -10.21654204 C-187.92468718 -10.21132129 -184.3488402 -10.2062666 -180.77299309 -10.20129442 C-151.18192201 -10.15993413 -121.59096631 -10.08927484 -92 -10 C-92 -9.01 -92 -8.02 -92 -7 C-90.9378125 -7.20496094 -89.875625 -7.40992188 -88.78125 -7.62109375 C-87.35419189 -7.89336142 -85.92710712 -8.16548933 -84.5 -8.4375 C-83.80390625 -8.57220703 -83.1078125 -8.70691406 -82.390625 -8.84570312 C-55.65359935 -13.9207867 -24.54236319 -12.9289019 0 0 Z M-108 16 C-108 12.04 -108 8.08 -108 4 C-136.50389683 3.88295126 -165.00775738 3.79490643 -193.51184654 3.74093914 C-206.74821403 3.71520984 -219.98443178 3.68016035 -233.22070312 3.62280273 C-244.76384449 3.57280612 -256.30687735 3.54067071 -267.850124 3.52955753 C-273.95640608 3.52306629 -280.06237786 3.50792054 -286.16856003 3.47134972 C-291.92893522 3.4371331 -297.68887555 3.42699846 -303.44934273 3.43446159 C-305.55103108 3.43309844 -307.65273566 3.42332051 -309.7543354 3.40397263 C-331.04085158 3.2177987 -348.73205049 6.68444686 -364.7421875 21.640625 C-368.07455512 25.12289151 -370.62550427 28.81849809 -373 33 C-373.38929688 33.680625 -373.77859375 34.36125 -374.1796875 35.0625 C-379.96104114 45.86561337 -380.63879647 58.61047941 -378.3125 70.51953125 C-372.82279496 88.33819886 -358.74094262 97.17270492 -344 107 C-368.42 107.33 -392.84 107.66 -418 108 C-421.22301874 115.73524497 -424.38962239 123.45822489 -427.390625 131.27734375 C-427.7807074 132.29172012 -428.17078979 133.3060965 -428.57269287 134.35121155 C-429.38695659 136.47084472 -430.20028327 138.59083807 -431.01269531 140.71118164 C-432.25692185 143.95554897 -433.50728275 147.19751098 -434.7578125 150.43945312 C-435.55245892 152.51027258 -436.34674285 154.58123118 -437.140625 156.65234375 C-437.51350647 157.6169603 -437.88638794 158.58157684 -438.27056885 159.57542419 C-438.61472839 160.47728958 -438.95888794 161.37915497 -439.31347656 162.30834961 C-439.76717621 163.48982826 -439.76717621 163.48982826 -440.2300415 164.69517517 C-441.1898437 167.40890863 -441.1898437 167.40890863 -442 172 C-417.25 172 -392.5 172 -367 172 C-367 239.32 -367 306.64 -367 376 C-336.97 376 -306.94 376 -276 376 C-271.78354225 366.96473339 -267.65138726 358.01975038 -263.875 348.8125 C-263.05989583 346.83984375 -262.24479167 344.8671875 -261.4296875 342.89453125 C-261.03620117 341.93885254 -260.64271484 340.98317383 -260.23730469 339.99853516 C-258.17196171 334.99329789 -256.08571599 329.99677485 -254 325 C-251.63022031 336.0733342 -249.89341848 347.15739151 -248.375 358.375 C-247.95011918 361.50849606 -247.51966565 364.64115541 -247.0859375 367.7734375 C-246.99114105 368.48680267 -246.8963446 369.20016785 -246.79867554 369.93515015 C-246.57661806 373.25511017 -246.57661806 373.25511017 -245 376 C-242.80085078 376.09920249 -240.59844968 376.12632408 -238.39706421 376.12698364 C-237.69877774 376.12854363 -237.00049127 376.13010362 -236.2810446 376.13171089 C-233.92350744 376.13572342 -231.56603382 376.13253019 -229.20849609 376.12939453 C-227.5251461 376.13074853 -225.8417964 376.13252846 -224.15844727 376.13470459 C-219.57139857 376.13928114 -214.98437225 376.13748791 -210.39732313 376.1343255 C-205.60127672 376.13180055 -200.80523227 376.13414005 -196.00918579 376.13571167 C-187.94703832 376.13753402 -179.88489999 376.13512645 -171.82275391 376.13037109 C-162.5064862 376.1249394 -153.19024042 376.1266829 -143.87397325 376.1321975 C-135.87985273 376.13673997 -127.88573881 376.13737328 -119.89161742 376.13475883 C-115.11548925 376.13320088 -110.33937137 376.13298888 -105.56324387 376.13629532 C-101.06698841 376.13919009 -96.57076109 376.1371688 -92.07450867 376.13140106 C-90.4261899 376.1300816 -88.77786875 376.13045373 -87.12955093 376.13266373 C-84.87461483 376.13540757 -82.6197681 376.13195459 -80.36483765 376.12698364 C-78.47388398 376.1264181 -78.47388398 376.1264181 -76.54472923 376.12584114 C-72.9654773 375.99877441 -69.53320987 375.57195284 -66 375 C-64.65909207 371.2318169 -63.3285821 367.46004479 -62 363.6875 C-61.6184375 362.61564453 -61.236875 361.54378906 -60.84375 360.43945312 C-60.4828125 359.41142578 -60.121875 358.38339844 -59.75 357.32421875 C-59.24726562 355.9024231 -59.24726562 355.9024231 -58.734375 354.4519043 C-57.85654047 351.94760921 -57.85654047 351.94760921 -58 349 C-39.19 349 -20.38 349 -1 349 C-0.34 351.97 0.32 354.94 1 358 C1.81817151 360.66861547 2.65505979 363.3013458 3.5625 365.9375 C3.78357422 366.59556641 4.00464844 367.25363281 4.23242188 367.93164062 C5.05280673 370.35313912 5.85514587 372.71029174 7 375 C10.5237863 376.17459543 13.2947923 376.12589614 17.01548767 376.12698364 C18.09315701 376.12932363 18.09315701 376.12932363 19.19259745 376.13171089 C21.60620221 376.13570772 24.01974435 376.13253631 26.43334961 376.12939453 C28.16127052 376.13074917 29.88919114 376.13252945 31.61711121 376.13470459 C36.31540658 376.13927184 41.01368005 376.13749217 45.71197581 376.1343255 C50.62419237 376.13179786 55.53640703 376.13414061 60.44862366 376.13571167 C68.69972064 376.13753235 76.95080867 376.13512989 85.2019043 376.13037109 C94.74548813 376.12493047 104.2890506 376.12669009 113.83263391 376.1321975 C122.02037678 376.13673366 130.2081132 376.13737665 138.39585692 376.13475883 C143.28867255 376.1331986 148.18147814 376.13299533 153.07429314 376.13629532 C157.67480406 376.13918125 162.27528742 376.13718499 166.87579536 376.13140106 C168.56568989 376.13007728 170.25558674 376.13046114 171.94548035 376.13266373 C174.24952793 376.1353902 176.55348678 376.13197566 178.85752869 376.12698364 C180.14782958 376.12660662 181.43813047 376.12622959 182.76753139 376.12584114 C185.39350944 376.02361089 187.51303779 375.78768467 190 375 C188.08415046 362.32010107 186.03352514 349.661432 184 337 C184.4444043 337.45383057 184.88880859 337.90766113 185.34667969 338.37524414 C190.59038869 343.68278107 196.13497255 348.38777433 202 353 C202.85464844 353.68320312 203.70929687 354.36640625 204.58984375 355.0703125 C221.96488667 368.39553338 242.32710484 374.94724109 264.1171875 375.62109375 C265.21022186 375.65883408 266.30325623 375.6965744 267.42941284 375.73545837 C284.08202753 376.23618072 300.74860303 376.11057498 317.40667725 376.06866455 C322.00028001 376.05824728 326.59388871 376.05382842 331.1875 376.04882812 C340.125015 376.03825377 349.06250454 376.02129516 358 376 C356.37683288 370.37002842 354.6785548 364.87565775 352.390625 359.47265625 C351.63978638 357.69000366 351.63978638 357.69000366 350.8737793 355.87133789 C350.33267642 354.60165839 349.79141255 353.33204748 349.25 352.0625 C348.68558741 350.7285892 348.12154958 349.39451978 347.55786133 348.06030273 C345.71412995 343.70306612 343.85820639 339.35107983 342 335 C341.66135925 334.20674316 341.32271851 333.41348633 340.97381592 332.59619141 C336.33145005 321.72409969 331.67210018 310.85934442 327 300 C326.28669525 299.99857498 325.5733905 299.99714996 324.83847046 299.99568176 C318.10003573 299.97781584 311.36221382 299.93609704 304.62409019 299.86790943 C301.1602763 299.83368936 297.69690106 299.80853743 294.23291016 299.80444336 C290.24602134 299.79932708 286.26005967 299.75416851 282.2734375 299.70703125 C281.03572601 299.7109639 279.79801453 299.71489655 278.52279663 299.71894836 C268.92227411 299.55648106 268.92227411 299.55648106 265.17041016 296.45581055 C264.4541748 295.64539307 263.73793945 294.83497559 263 294 C268 290 268 290 270.39453125 288.20703125 C282.92871444 277.5896197 288.80058784 261.89778826 290.28515625 245.93359375 C290.94175631 224.49417452 281.35221994 205.04216684 267.37109375 189.41796875 C260.94287003 182.61665299 252.97288236 177.78372942 245 173 C285.26 172.67 325.52 172.34 367 172 C365.31388046 163.53428391 365.31388046 163.53428391 363.08203125 155.3046875 C362.71779053 154.10473145 362.3535498 152.90477539 361.97827148 151.66845703 C361.59356689 150.41661621 361.2088623 149.16477539 360.8125 147.875 C360.00581171 145.2245648 359.20233589 142.5731575 358.3984375 139.921875 C358.19715744 139.25975006 357.99587738 138.59762512 357.78849792 137.91543579 C354.76887895 127.9700929 351.89598245 117.98189697 349 108 C337.45 107.67 325.9 107.34 314 107 C310.37 93.14 306.74 79.28 303 65 C313.56 65 324.12 65 335 65 C333.72507345 60.4907311 332.44816617 55.98209741 331.16699219 51.47460938 C330.73562749 49.95504353 330.30522345 48.4352045 329.87597656 46.91503906 C325.81342723 32.5324592 321.39750233 18.29188257 317 4 C266.51 4 216.02 4 164 4 C164.56585501 14.0576343 164.56585501 14.0576343 166 24 C165.4121875 23.38125 165.4121875 23.38125 164.8125 22.75 C150.75390245 9.17618168 130.50794385 3.81563775 111.47485352 3.88647461 C110.43995285 3.88632858 109.40505219 3.88618256 108.33879089 3.8860321 C104.93547431 3.88672593 101.53221321 3.89449348 98.12890625 3.90234375 C95.76236501 3.90420981 93.39582338 3.90563283 91.02928162 3.90663147 C84.81343512 3.91044182 78.59761214 3.92025944 72.3817749 3.93133545 C66.03381671 3.94158145 59.68585471 3.94613592 53.33789062 3.95117188 C40.89191511 3.96188305 28.44596319 3.97946784 16 4 C15.67 12.58 15.34 21.16 15 30 C13.02 27.525 13.02 27.525 11 25 C-19.97567733 -1.82381697 -73.12117841 -5.42556184 -108 16 Z " fill="#F0F0F0" transform="translate(469,26)"/>
<path d="M0 0 C1.11696762 0.00222061 2.23393524 0.00444122 3.38475037 0.00672913 C4.64598221 0.00680466 5.90721405 0.00688019 7.20666504 0.00695801 C8.59341979 0.01206542 9.98017414 0.01728142 11.3669281 0.02259827 C12.77797394 0.0244625 14.18902042 0.02588638 15.60006714 0.02688599 C19.3204272 0.03071072 23.04074845 0.04054062 26.76109314 0.05158997 C30.55482966 0.06180504 34.34857243 0.06638381 38.14231873 0.07142639 C45.59090416 0.08216294 53.03945758 0.09923882 60.48802185 0.12025452 C61.29818738 16.10421899 61.75755317 32.07615822 62.04026794 48.07728577 C62.09203527 50.94586051 62.14912004 53.81429291 62.20677185 56.68275452 C62.22034729 57.5452179 62.23392273 58.40768127 62.24790955 59.29627991 C62.3382136 63.66873697 62.62624022 67.81483538 63.48802185 72.12025452 C63.98946716 70.90982483 64.49091248 69.69939514 65.0075531 68.45228577 C70.69495497 54.75046446 76.43364029 41.06994955 82.188797 27.39646912 C83.05547217 25.33607729 83.92105133 23.2752241 84.78553772 21.21391296 C86.01669734 18.27907647 87.25187467 15.34596186 88.48802185 12.41322327 C88.86162338 11.52041656 89.23522491 10.62760986 89.62014771 9.70774841 C90.14255791 8.47177414 90.14255791 8.47177414 90.67552185 7.21083069 C90.97845154 6.49046127 91.28138123 5.77009186 91.5934906 5.02789307 C92.48802185 3.12025452 92.48802185 3.12025452 94.48802185 0.12025452 C97.00636292 -0.24050903 97.00636292 -0.24050903 100.22288513 -0.22032166 C101.42397919 -0.22009506 102.62507324 -0.21986847 103.86256409 -0.21963501 C105.81572037 -0.19640923 105.81572037 -0.19640923 107.80833435 -0.17271423 C109.1506859 -0.16711964 110.49304358 -0.1628489 111.83540344 -0.15985107 C115.37013127 -0.14839134 118.90448983 -0.11891507 122.43907166 -0.08573914 C126.04518132 -0.0550622 129.65135059 -0.04135086 133.2575531 -0.02622986 C140.33452718 0.005954 147.41125042 0.05716358 154.48802185 0.12025452 C156.96493496 13.94366812 159.24794632 27.76370807 161.11302185 41.68275452 C161.31835065 43.19387668 161.5240808 44.70494436 161.73020935 46.21595764 C162.031464 48.42488893 162.33243237 50.63385347 162.63163757 52.84306335 C163.54857737 59.60722468 164.5116461 66.36440769 165.48802185 73.12025452 C165.67070618 72.55745285 165.8533905 71.99465118 166.04161072 71.41479492 C167.98637235 65.4251354 169.9345517 59.43659457 171.88450623 53.44862366 C172.60669408 51.22949376 173.32808009 49.01010271 174.04856873 46.79042053 C177.92535937 34.84871415 181.85242417 22.92737091 185.95677185 11.06166077 C186.29704407 10.07334763 186.63731628 9.08503448 186.98789978 8.06677246 C187.30182678 7.16604507 187.61575378 6.26531769 187.93919373 5.33729553 C188.35292236 4.14741783 188.35292236 4.14741783 188.77500916 2.9335022 C189.48802185 1.12025452 189.48802185 1.12025452 190.48802185 0.12025452 C192.54358846 0.02611764 194.60242366 0.00282454 196.66014099 0.00672913 C197.62596352 0.00651009 197.62596352 0.00651009 198.61129761 0.00628662 C200.74862488 0.00698567 202.88586598 0.01477761 205.0231781 0.02259827 C206.5014847 0.02446248 207.97979192 0.02588637 209.45809937 0.02688599 C213.35600987 0.03071093 217.25388334 0.040541 221.15177917 0.05158997 C225.12648518 0.0618046 229.10119714 0.06638372 233.07591248 0.07142639 C240.87996585 0.0821633 248.68398867 0.09923942 256.48802185 0.12025452 C255.98168915 4.00074554 255.45599354 7.7126778 254.23216248 11.43373108 C253.8548851 12.59513359 253.8548851 12.59513359 253.46998596 13.77999878 C253.19750031 14.59868942 252.92501465 15.41738007 252.64427185 16.26087952 C252.35945953 17.13189804 252.07464722 18.00291656 251.78120422 18.90032959 C250.85578525 21.72552619 249.92206387 24.54789832 248.98802185 27.37025452 C248.34255893 29.33438295 247.69754226 31.29865809 247.05296326 33.26307678 C245.20613904 38.88484463 243.34871375 44.5030637 241.48802185 50.12025452 C241.25369446 50.82841309 241.01936707 51.53657166 240.77793884 52.26618958 C238.42129881 59.38814407 236.04612979 66.5037694 233.66136169 73.61634827 C231.5815749 79.8271473 229.51293267 86.04166101 227.44273376 92.25566101 C226.67415681 94.56185044 225.90491873 96.86781834 225.13548279 99.17372131 C222.59640067 106.78430826 220.06398765 114.39698852 217.5466156 122.01478577 C212.42921495 137.48542929 207.22151101 152.92208711 201.86076355 168.31031799 C201.24286234 170.0842183 200.62618079 171.85854398 200.01078796 173.63331604 C199.15208257 176.1070696 198.28776713 178.57878722 197.4216156 181.04994202 C197.16898453 181.77956146 196.91635345 182.50918091 196.65606689 183.26091003 C196.41426193 183.94652008 196.17245697 184.63213013 195.92332458 185.33851624 C195.61454628 186.22154922 195.61454628 186.22154922 195.29953003 187.12242126 C194.18814153 189.85852295 192.80873657 192.47882508 191.48802185 195.12025452 C167.06802185 195.12025452 142.64802185 195.12025452 117.48802185 195.12025452 C115.12573487 179.76538917 112.79090333 164.46336663 110.86302185 149.05775452 C110.65758734 147.44118059 110.45185715 145.8246442 110.24583435 144.20814514 C108.93106977 133.8527081 107.69035083 123.4893055 106.48802185 113.12025452 C105.92425842 114.5187262 105.92425842 114.5187262 105.34910583 115.94544983 C98.08472702 133.95584656 90.77082392 151.94415458 83.30052185 169.87025452 C82.82786392 171.00581787 82.82786392 171.00581787 82.34565735 172.1643219 C81.44269686 174.332515 80.5380114 176.49997849 79.6325531 178.66712952 C79.37267609 179.29075378 79.11279907 179.91437805 78.845047 180.55690002 C76.79822347 185.44376783 74.65373943 190.2850314 72.48802185 195.12025452 C62.72651197 195.14337897 52.96500855 195.16117013 43.20347691 195.17206669 C38.67128091 195.17729529 34.13910358 195.18439252 29.60691833 195.19569397 C25.23679355 195.20652366 20.86668677 195.21253152 16.49654961 195.21513176 C14.82551222 195.21698586 13.15447588 195.22060619 11.48344612 195.22598457 C9.15104634 195.2331961 6.81872192 195.23424541 4.48631287 195.23377991 C3.78860275 195.23737518 3.09089264 195.24097046 2.37203979 195.24467468 C-2.39792599 195.23430668 -2.39792599 195.23430668 -3.51197815 194.12025452 C-3.61191653 191.63102446 -3.6463933 189.16947899 -3.63896179 186.67970276 C-3.64052178 185.89142829 -3.64208177 185.10315383 -3.64368904 184.29099226 C-3.64770222 181.62924338 -3.64450817 178.96755077 -3.64137268 176.30580139 C-3.64272658 174.40582241 -3.64450645 172.50584369 -3.64668274 170.60586548 C-3.65125841 165.43039627 -3.64946696 160.25494689 -3.64630365 155.07947731 C-3.64378074 149.67603627 -3.6461174 144.27259699 -3.64768982 138.86915588 C-3.64951172 129.79318434 -3.64710468 120.71722092 -3.64234924 111.64125061 C-3.63690659 101.13198619 -3.63866923 90.62274118 -3.64417565 80.11347723 C-3.6487062 71.10799413 -3.64935761 62.10251689 -3.64673698 53.09703302 C-3.64517389 47.71076292 -3.64498131 42.32450195 -3.64827347 36.93823242 C-3.65115135 31.87566146 -3.64917802 26.81311564 -3.64337921 21.75054741 C-3.64205117 19.88685078 -3.64244648 18.02315206 -3.64464188 16.15945625 C-3.64735165 13.62654387 -3.6439744 11.09371336 -3.63896179 8.56080627 C-3.64119251 7.81344821 -3.64342324 7.06609015 -3.64572155 6.29608488 C-3.62202088 0.17339497 -3.62202088 0.17339497 0 0 Z " fill="#F8F8F8" transform="translate(114.51197814941406,196.87974548339844)"/>
<path d="M0 0 C11.7189401 -0.06988892 23.43782961 -0.12300712 35.15693665 -0.15543652 C40.60014269 -0.17101062 46.04320485 -0.19209587 51.48632812 -0.22631836 C56.75130605 -0.259209 62.01614665 -0.27691488 67.28121948 -0.28463173 C69.27759967 -0.29012243 71.27397339 -0.30084227 73.27029419 -0.31719017 C95.77982639 -0.49398363 116.62354323 2.09612093 133.6875 18.25 C143.06234626 28.08215583 147.98834109 40.09947479 148.4375 53.75 C147.9210712 64.97816168 143.92926543 73.27139423 136.6875 81.6875 C130.64745362 86.88474921 124.57030624 90.52244523 117 93 C118.48857301 94.28419926 119.99156778 95.55168693 121.5 96.8125 C122.3353125 97.52019531 123.170625 98.22789062 124.03125 98.95703125 C132.63210997 104.87578094 141.46567249 104.53443025 151.5 104.6875 C153.00523718 104.72072283 154.51044687 104.75521697 156.015625 104.79101562 C159.67688192 104.87535136 163.33821306 104.94242673 167 105 C166.82140694 104.13354607 166.82140694 104.13354607 166.63920593 103.24958801 C162.8656593 84.85842167 159.49566046 66.40728651 156.21051025 47.92419434 C155.67503108 44.91496725 155.13706337 41.90618736 154.59901905 38.89741802 C153.94656152 35.24818976 153.29547537 31.59871722 152.64453125 27.94921875 C152.52456095 27.27718603 152.40459064 26.60515331 152.28098488 25.91275597 C151.72130916 22.77516917 151.16519396 19.63701258 150.61416626 16.49789429 C150.20089155 14.1441485 149.78148716 11.79147162 149.35629272 9.43984985 C149.16354767 8.34699677 148.97080261 7.25414368 148.7722168 6.12817383 C148.598853 5.16091873 148.4254892 4.19366364 148.24687195 3.19709778 C148.16540421 2.47205551 148.08393646 1.74701324 148 1 C149 0 149 0 151.21577549 -0.12304783 C152.20301578 -0.12212604 153.19025606 -0.12120424 154.20741272 -0.12025452 C155.33628403 -0.12162918 156.46515533 -0.12300385 157.62823486 -0.12442017 C159.50234039 -0.11902725 159.50234039 -0.11902725 161.41430664 -0.11352539 C162.72143112 -0.11367142 164.0285556 -0.11381744 165.37528992 -0.1139679 C168.97017099 -0.11425586 172.56501897 -0.10835928 176.15989232 -0.10139394 C179.91286252 -0.09516026 183.6658334 -0.09455659 187.41880798 -0.09336853 C194.53030826 -0.09025526 201.64179325 -0.08204192 208.75328678 -0.07201904 C216.84747066 -0.06085778 224.94165526 -0.05534742 233.03584492 -0.05032361 C249.69057225 -0.03985931 266.34528418 -0.02225994 283 0 C283.64122546 1.58771948 284.28092318 3.17605601 284.91998291 4.76464844 C285.27637974 5.6490863 285.63277657 6.53352417 285.9999733 7.44476318 C287.26348904 10.67325892 288.33386992 13.93868586 289.359375 17.25 C289.65053192 18.18718872 289.65053192 18.18718872 289.9475708 19.14331055 C290.3493455 20.43981959 290.74915064 21.73694063 291.14697266 23.03466797 C291.75800966 25.02610437 292.37662297 27.01507902 292.99609375 29.00390625 C296 38.73416736 296 38.73416736 296 41 C253.43 41.495 253.43 41.495 210 42 C210.99 47.94 210.99 47.94 212 54 C230.15 54 248.3 54 267 54 C268.83174701 58.88465869 270.48134926 63.38823241 271.82421875 68.36328125 C272.28344727 70.06387695 272.28344727 70.06387695 272.75195312 71.79882812 C273.06068359 72.95833984 273.36941406 74.11785156 273.6875 75.3125 C274.00783203 76.49134766 274.32816406 77.67019531 274.65820312 78.88476562 C277 87.6178205 277 87.6178205 277 91 C258.19 91 239.38 91 220 91 C220.99 94.63 221.98 98.26 223 102 C223 102.99 223 103.98 223 105 C268.54 104.505 268.54 104.505 315 104 C317.39500423 109.98751057 319.68788772 115.77945957 321.578125 121.90625 C321.90257599 122.94332092 321.90257599 122.94332092 322.23358154 124.00134277 C322.68238617 125.43909761 323.12926295 126.87745563 323.57421875 128.31640625 C324.25777066 130.52510866 324.94877755 132.73138364 325.640625 134.9375 C326.07856155 136.34361411 326.51607747 137.74985931 326.953125 139.15625 C327.26240936 140.14365173 327.26240936 140.14365173 327.57794189 141.15100098 C329 145.76905783 329 145.76905783 329 148 C303.21695708 148.20114631 277.43383987 148.38437943 251.65052128 148.54658794 C239.6775007 148.62232546 227.70457192 148.70381079 215.73168945 148.79907227 C205.28988272 148.88213698 194.84806651 148.9541677 184.40609545 149.01323253 C178.88283139 149.04485259 173.35972466 149.08180473 167.83659554 149.13199425 C162.62545638 149.17917372 157.41442581 149.21146731 152.20311928 149.2329216 C150.30256737 149.24326488 148.4020345 149.25879285 146.50157547 149.28024101 C132.02739207 149.43903954 115.87518373 149.5254553 103 142 C101.91912109 141.36964844 101.91912109 141.36964844 100.81640625 140.7265625 C92.42687585 135.46311362 85.31356422 128.51999426 78.47265625 121.41015625 C76.84872083 119.77289132 76.84872083 119.77289132 74 118 C74 117.34 74 116.68 74 116 C73.43796875 115.76539063 72.8759375 115.53078125 72.296875 115.2890625 C69.45364109 113.69337 67.51901873 111.71075457 65.25 109.375 C64.45078125 108.55773437 63.6515625 107.74046875 62.828125 106.8984375 C62.22484375 106.27195312 61.6215625 105.64546875 61 105 C61.05220703 106.68029297 61.05220703 106.68029297 61.10546875 108.39453125 C61.13360839 109.86717251 61.16090837 111.33982998 61.1875 112.8125 C61.21263672 113.55048828 61.23777344 114.28847656 61.26367188 115.04882812 C61.33849338 120.56067881 61.33849338 120.56067881 59.53125 122.90625 C59.0259375 123.2671875 58.520625 123.628125 58 124 C55.76751521 129.47973539 56.87262142 136.36310709 58 142 C59.98 142 61.96 142 64 142 C64.33 143.98 64.66 145.96 65 148 C46.19 148 27.38 148 8 148 C7.07953503 134.09613433 6.16978668 120.19181928 5.27587891 106.28625488 C5.08213218 103.27376544 4.88769451 100.26132137 4.69287109 97.24890137 C4.06456752 87.53048767 3.44176593 77.81175025 2.82866955 68.09236431 C2.5445352 63.58984664 2.25819865 59.08749592 1.96621704 54.58547974 C1.6858546 50.26065665 1.41215227 45.93545653 1.14289856 41.60992813 C1.04244024 40.01318062 0.93980056 38.41656832 0.83460999 36.82012558 C0.02741345 24.53564212 -0.10812107 12.30941983 0 0 Z M55 40 C55.66 47.92 56.32 55.84 57 64 C61.18153431 64.06905286 65.3610734 64.12872548 69.54272461 64.16479492 C70.96369141 64.1798376 72.38461213 64.20027704 73.80541992 64.22631836 C75.85346886 64.26290347 77.9009015 64.27977097 79.94921875 64.29296875 C81.17987061 64.3086792 82.41052246 64.32438965 83.6784668 64.34057617 C87.27798237 63.97149685 89.09254095 63.09115793 92 61 C92.5775 60.5875 93.155 60.175 93.75 59.75 C95.79273811 56.89016665 95.88420692 54.47379247 96 51 C94.85183727 46.76614995 93.74697044 44.62266035 90.37109375 41.80859375 C84.27914362 38.51938293 76.78855255 39.58918765 70.0625 39.75 C68.60093585 39.77009023 67.13934514 39.78833656 65.67773438 39.8046875 C62.11729212 39.84507822 58.56057754 39.92338267 55 40 Z " fill="#FBFBFB" transform="translate(495,39)"/>
<path d="M0 0 C16.69082487 -0.04689565 33.38162809 -0.08207438 50.07250309 -0.10362434 C57.82382992 -0.11390006 65.57511561 -0.12788879 73.32641602 -0.15087891 C80.08907379 -0.17092703 86.85170174 -0.18374329 93.61438841 -0.18817699 C97.18915626 -0.19076521 100.76383887 -0.19676958 104.33857918 -0.21146011 C138.80167489 -0.34757717 138.80167489 -0.34757717 153.5625 4.125 C154.2644751 4.33600342 154.9664502 4.54700684 155.68969727 4.7644043 C167.16255402 8.44012362 177.00562001 15.06091731 186 23 C186.91652344 23.77537109 186.91652344 23.77537109 187.8515625 24.56640625 C199.31468389 35.00883875 207.2586858 51.33341593 208.23828125 66.75 C208.62974735 81.79930321 205.44799065 95.35562916 194.9375 106.625 C187.82086353 113.40952677 179.30136652 117.95916864 170 121 C182.64131327 132.18604181 193.43120667 138.2263058 210.62109375 138.4140625 C211.72099136 138.43342865 212.82088898 138.4527948 213.95411682 138.4727478 C217.44850033 138.53226908 220.94291726 138.57881927 224.4375 138.625 C226.81446706 138.66320501 229.19142065 138.7022582 231.56835938 138.7421875 C237.37878619 138.83794799 243.18929492 138.92307508 249 139 C255.34468128 153.55174659 261.67711523 168.10848332 267.8125 182.75 C268.23837402 183.75998047 268.66424805 184.76996094 269.10302734 185.81054688 C269.68044678 187.1959668 269.68044678 187.1959668 270.26953125 188.609375 C270.60573486 189.41342773 270.94193848 190.21748047 271.28833008 191.04589844 C272 193 272 193 272 195 C261.21102073 195.06997554 250.42209679 195.12305006 239.63293552 195.15543652 C234.62133748 195.17099218 229.60989641 195.19204231 224.59838867 195.22631836 C219.74837167 195.25927659 214.8985042 195.27692861 210.04838371 195.28463173 C208.21192005 195.29011062 206.37546316 195.30080609 204.53906441 195.31719017 C175.70139364 195.56388852 150.73340074 188.72230265 129.39453125 168.53515625 C127.91322193 167.04364859 126.44258938 165.54143861 124.984375 164.02734375 C123.17990551 162.1838011 121.33276354 160.48998543 119.375 158.8125 C115.20737748 155.23662916 111.19915587 151.49857298 107.1875 147.75 C106.52862793 147.13487549 105.86975586 146.51975098 105.19091797 145.88598633 C102.42130203 143.29343485 99.6709553 140.69463666 97 138 C97.79625147 142.85284555 98.59599143 147.70510006 99.39868164 152.55688477 C99.67010039 154.20028927 99.94063873 155.84383946 100.21020508 157.48754883 C101.76632038 166.97202811 103.41921735 176.40423105 105.45581055 185.79858398 C106 189 106 189 106 195 C79.27 195 52.54 195 25 195 C19.07318875 151.14159674 19.07318875 151.14159674 16.41015625 130.8671875 C16.312258 130.12245682 16.21435974 129.37772614 16.11349487 128.61042786 C15.80471383 126.26113381 15.49609601 123.91181836 15.1875 121.5625 C15.08222992 120.76137787 14.97695984 119.96025574 14.86849976 119.13485718 C13.34666101 107.55335283 11.82833723 95.97139051 10.31267548 84.38907623 C10.00530271 82.04051673 9.69776773 79.69197851 9.39019775 77.34344482 C8.26071457 68.71723825 7.13508171 60.09054262 6.01504517 51.46310425 C5.6771331 48.86298136 5.33827751 46.26298088 4.99838257 43.66311646 C4.52726978 40.05703105 4.06002415 36.45046384 3.59375 32.84375 C3.46084061 31.83215317 3.32793121 30.82055634 3.19099426 29.77830505 C1.91866857 19.87376579 0.9662603 9.93810317 0 0 Z M81 52 C82.65 62.56 84.3 73.12 86 84 C91.2658008 84.06915205 96.53000412 84.12879947 101.79589844 84.16479492 C103.58436443 84.17981184 105.37279403 84.20023158 107.16113281 84.22631836 C109.74293031 84.26301615 112.32423779 84.27979745 114.90625 84.29296875 C116.09112 84.31619453 116.09112 84.31619453 117.29992676 84.33988953 C122.84754814 84.34154314 126.93790865 83.31345851 132 81 C135.45120178 77.46030587 136.82810937 74.75328443 137.3125 69.8125 C136.83190315 63.94921843 134.77933295 59.77933295 130.625 55.625 C124.66845112 51.9376126 119.2400727 51.72368178 112.4453125 51.8046875 C111.09299026 51.80893234 111.09299026 51.80893234 109.71334839 51.81326294 C106.85042724 51.82440561 103.98782566 51.8494992 101.125 51.875 C99.17708787 51.88503745 97.22917081 51.89416196 95.28125 51.90234375 C90.52061291 51.92261904 85.76066172 51.96177881 81 52 Z " fill="#FAFAFA" transform="translate(541,197)"/>
<path d="M0 0 C33 0 66 0 100 0 C103.04686726 7.31248142 106.07169119 14.61703849 108.9765625 21.984375 C109.33948898 22.90210693 109.70241547 23.81983887 110.07633972 24.76538086 C111.26026931 27.75984295 112.44266031 30.75490983 113.625 33.75 C114.46433227 35.87406477 115.30377115 37.99808741 116.14331055 40.12207031 C117.44778342 43.42234641 118.75217084 46.72265601 120.05613708 50.02313232 C123.02556505 57.5383813 126.00110877 65.05118351 128.98046875 72.5625 C142.22806391 105.96967387 142.22806391 105.96967387 146.63671875 117.36328125 C147.06116524 118.46018784 147.06116524 118.46018784 147.4941864 119.57925415 C148.60085412 122.4408956 149.70699111 125.30273869 150.81100464 128.16540527 C154.47523173 137.65842713 158.24464687 147.10451001 162.0859375 156.52734375 C162.52367493 157.60258804 162.96141235 158.67783234 163.41241455 159.78565979 C165.58426812 165.11773877 167.76428065 170.44625605 169.95703125 175.76977539 C170.7502319 177.71100552 171.54321149 179.652326 172.3359375 181.59375 C172.70705658 182.48678329 173.07817566 183.37981659 173.46054077 184.2999115 C173.79631134 185.12584305 174.13208191 185.9517746 174.47802734 186.80273438 C174.77333344 187.52021851 175.06863953 188.23770264 175.37289429 188.97692871 C176 191 176 191 176 195 C148.94 195 121.88 195 94 195 C91.03 186.09 88.06 177.18 85 168 C50.35 167.505 50.35 167.505 15 167 C14.67 169.31 14.34 171.62 14 174 C11.69 180.93 9.38 187.86 7 195 C-19.4 195 -45.8 195 -73 195 C-72.1884525 190.13071498 -71.22764618 186.62542102 -69.4375 182.12109375 C-69.17451614 181.4532486 -68.91153229 180.78540344 -68.64057922 180.09732056 C-68.06728575 178.64239096 -67.4914897 177.18844554 -66.91348267 175.73538208 C-65.31809073 171.72214497 -63.74366335 167.70069031 -62.16796875 163.6796875 C-61.83234421 162.82421829 -61.49671967 161.96874908 -61.15092468 161.08735657 C-57.11576579 150.77950941 -53.21348644 140.42169663 -49.3125 130.0625 C-48.57960482 128.11750738 -47.84669472 126.17252038 -47.11376953 124.22753906 C-46.04747856 121.39744088 -44.98135129 118.56728153 -43.91571045 115.73693848 C-41.08320325 108.21495443 -38.23200864 100.70021409 -35.375 93.1875 C-31.04961099 81.80424304 -26.77157418 70.40353345 -22.5 59 C-17.95526765 46.86824827 -13.40290583 34.73955385 -8.8125 22.625 C-8.379375 21.4803125 -7.94625 20.335625 -7.5 19.15625 C-7.09394531 18.08632812 -6.68789063 17.01640625 -6.26953125 15.9140625 C-5.92510986 15.0060791 -5.58068848 14.0980957 -5.22583008 13.16259766 C-3.51975793 8.76099268 -1.7532161 4.38304025 0 0 Z M50 54 C47.93602655 60.45517043 45.8731654 66.91069559 43.81103516 73.36645508 C43.11108896 75.55728989 42.41089897 77.74804683 41.71044922 79.9387207 C40.69693095 83.10867619 39.68432389 86.27892158 38.671875 89.44921875 C38.21068268 90.89067513 38.21068268 90.89067513 37.74017334 92.36125183 C35.44263701 99.55992906 33.22258833 106.77658792 31 114 C43.87 114 56.74 114 70 114 C68.26038471 108.34754082 66.51944746 102.69551971 64.77539062 97.04443359 C64.185139 95.13059713 63.59559538 93.21654213 63.00683594 91.30224609 C59.16466958 78.81192714 55.19441735 66.37668704 51 54 C50.67 54 50.34 54 50 54 Z " fill="#FBFBFB" transform="translate(389,197)"/>
<path d="M0 0 C0.81926971 0.00359528 1.63853943 0.00719055 2.4826355 0.01089478 C3.34109573 0.01074875 4.19955597 0.01060272 5.08403015 0.01045227 C7.93559249 0.0111517 10.78709036 0.01894547 13.63864136 0.02676392 C15.61019353 0.02862799 17.58174615 0.03005194 19.55329895 0.03105164 C24.75324778 0.03487765 29.95316886 0.04470865 35.15310669 0.05575562 C40.45492172 0.06596794 45.75674121 0.07054887 51.05856323 0.07559204 C61.46938274 0.08633084 71.88018162 0.10340826 82.29098511 0.12442017 C79.777928 2.63747727 78.23721912 2.36979463 74.80818176 2.40339661 C74.04397415 2.40084366 73.27976654 2.39829071 72.49240112 2.3956604 C71.68738159 2.40088715 70.88236206 2.40611389 70.052948 2.41149902 C68.30197161 2.42175399 66.55096461 2.42752203 64.79995918 2.42938042 C62.03062213 2.43303273 59.26164687 2.44972751 56.49238586 2.47013855 C48.61794754 2.52566323 40.74345551 2.55626275 32.86886597 2.58071899 C28.05539651 2.59657174 23.24218331 2.62676719 18.42884636 2.66548347 C16.59202731 2.67715465 14.75516247 2.68306401 12.91830635 2.6831646 C10.35158578 2.68335611 7.78557437 2.70158266 5.21896362 2.7237854 C4.45678024 2.71920822 3.69459686 2.71463104 2.90931702 2.70991516 C-1.10763611 2.7027864 -1.10763611 2.7027864 -4.51701355 4.58695984 C-4.91037399 5.09432175 -5.30373444 5.60168365 -5.70901489 6.12442017 C-6.69901489 6.45442017 -7.68901489 6.78442017 -8.70901489 7.12442017 C-6.43907193 0.01193222 -6.43907193 0.01193222 0 0 Z " fill="#E1E1E1" transform="translate(63.709014892578125,142.87557983398438)"/>
<path d="M0 0 C1.64524467 0.04234901 3.29034903 0.09037435 4.93530273 0.14282227 C6.23164894 0.17823875 6.23164894 0.17823875 7.55418396 0.21437073 C10.32591396 0.29120113 13.09737804 0.37514147 15.86889648 0.45922852 C17.74323225 0.51242983 19.61758115 0.56517034 21.49194336 0.61743164 C26.0969308 0.74684234 30.70169185 0.88263168 35.30639648 1.02172852 C35.30639648 1.35172852 35.30639648 1.68172852 35.30639648 2.02172852 C30.07383427 2.18916139 24.84112421 2.34973952 19.6081543 2.50390625 C17.82717191 2.55734872 16.04624517 2.61267981 14.26538086 2.66992188 C11.70886232 2.75177032 9.15222204 2.82687382 6.59545898 2.90063477 C5.79645172 2.92766983 4.99744446 2.9547049 4.17422485 2.9825592 C-1.4658601 3.13560022 -1.4658601 3.13560022 -3.69360352 2.02172852 C-3.36360352 5.32172852 -3.03360352 8.62172852 -2.69360352 12.02172852 C-3.02360352 12.02172852 -3.35360352 12.02172852 -3.69360352 12.02172852 C-3.88761985 10.20991446 -4.07364726 8.39724319 -4.25610352 6.58422852 C-4.36051758 5.57489258 -4.46493164 4.56555664 -4.57250977 3.52563477 C-4.6124707 2.6993457 -4.65243164 1.87305664 -4.69360352 1.02172852 C-3.69360352 0.02172852 -3.69360352 0.02172852 0 0 Z " fill="#F6F6F6" transform="translate(648.693603515625,39.978271484375)"/>
<path d="M0 0 C0.33 0.66 0.66 1.32 1 2 C-0.85440569 4.78160853 -1.88957059 5.78240714 -4.5625 7.5625 C-7.27798749 9.3270526 -7.27798749 9.3270526 -9 12 C-9.99 11.67 -10.98 11.34 -12 11 C-9.17589976 8.07130346 -6.27847819 5.41572077 -3 3 C-2.34 3 -1.68 3 -1 3 C-0.67 2.01 -0.34 1.02 0 0 Z " fill="#B9B9B9" transform="translate(743,309)"/>
<path d="M0 0 C1.52519276 0.08937803 3.04681929 0.24537146 4.5625 0.4375 C5.80193359 0.59025391 5.80193359 0.59025391 7.06640625 0.74609375 C7.70449219 0.82988281 8.34257813 0.91367187 9 1 C9 1.33 9 1.66 9 2 C2.25 3.125 2.25 3.125 0 2 C0.33 5.3 0.66 8.6 1 12 C0.67 12 0.34 12 0 12 C-0.19401633 10.18818595 -0.38004375 8.37551468 -0.5625 6.5625 C-0.66691406 5.55316406 -0.77132812 4.54382812 -0.87890625 3.50390625 C-0.91886719 2.67761719 -0.95882812 1.85132813 -1 1 C-0.67 0.67 -0.34 0.34 0 0 Z " fill="#C3C3C3" transform="translate(645,40)"/>
<path d="M0 0 C2.00720923 0.28674418 4.0085944 0.61866701 6 1 C0.85714286 6.57142857 0.85714286 6.57142857 -3 7 C-1.125 1.125 -1.125 1.125 0 0 Z " fill="#D1D1D1" transform="translate(58,143)"/>
<path d="M0 0 C0.66 1.32 1.32 2.64 2 4 C0.67172689 6.85578718 -0.14643942 8.57321971 -3 10 C-2.01 6.7 -1.02 3.4 0 0 Z " fill="#C5C5C5" transform="translate(341,324)"/>
<path d="M0 0 C0.66 0.33 1.32 0.66 2 1 C1.45276317 4.37462715 0.9451 6.08235 -1 9 C-1.09765625 2.84765625 -1.09765625 2.84765625 -1 1 C-0.67 0.67 -0.34 0.34 0 0 Z " fill="#CCCCCC" transform="translate(202,348)"/>
<path d="M0 0 C0.66 0.33 1.32 0.66 2 1 C2 1.99 2 2.98 2 4 C0.125 4.625 0.125 4.625 -2 5 C-2.66 4.34 -3.32 3.68 -4 3 C-2.68 2.01 -1.36 1.02 0 0 Z " fill="#CACACA" transform="translate(121,46)"/>
</svg>
