<?xml version="1.0" encoding="UTF-8"?>
<svg version="1.1" xmlns="http://www.w3.org/2000/svg" width="1862" height="426">
<path d="M0 0 C3.7841451 0.00316971 7.56751266 -0.02043709 11.3515625 -0.0456543 C62.40653188 -0.17787035 62.40653188 -0.17787035 76.7890625 13.31567383 C81.91935358 20.08204862 80.27401825 29.2501281 79.3203125 37.24536133 C77.27759103 49.13691843 73.15101416 58.74671362 63.3671875 66.14770508 C58.64608209 69.2574454 53.28855089 71.04557758 48.0390625 73.06567383 C45.78162727 73.95395214 43.52512038 74.84459316 41.26953125 75.73754883 C40.16399902 76.17518555 39.0584668 76.61282227 37.91943359 77.0637207 C22.46919585 83.24285182 7.22245316 90.3204286 -6.4609375 99.87817383 C-9.65452587 102.10362714 -12.21966329 103.21589197 -16.2109375 103.31567383 C-16.5409375 102.98567383 -16.8709375 102.65567383 -17.2109375 102.31567383 C-16.79705277 94.54592862 -13.17529442 90.86755919 -7.72167969 85.66918945 C-0.22862046 78.95595087 8.68015191 74.06103889 17.49658203 69.32104492 C22.05702518 66.85198069 22.05702518 66.85198069 25.7890625 63.31567383 C22.55593985 61.6991125 19.01428012 62.13175882 15.4609375 62.11254883 C14.61292572 62.10553452 13.76491394 62.0985202 12.89120483 62.09129333 C10.10710456 62.07360562 7.3232172 62.06742368 4.5390625 62.06567383 C3.1134903 62.06466171 3.1134903 62.06466171 1.65911865 62.06362915 C-23.6450779 62.09214227 -48.2422882 64.64187224 -73.07275391 69.68041992 C-75.10332626 70.09146312 -77.1367898 70.48857488 -79.17333984 70.86889648 C-89.16098789 72.44914986 -89.16098789 72.44914986 -97.48828125 77.60864258 C-98.98154769 80.12021794 -100.07145861 82.63035778 -101.2109375 85.31567383 C-102.72224914 87.26657371 -104.32672765 89.04304021 -106.01171875 90.84301758 C-107.44364273 92.42407188 -107.44364273 92.42407188 -108.2109375 95.31567383 C-108.8709375 95.31567383 -109.5309375 95.31567383 -110.2109375 95.31567383 C-110.5409375 96.30567383 -110.8709375 97.29567383 -111.2109375 98.31567383 C-111.8709375 98.31567383 -112.5309375 98.31567383 -113.2109375 98.31567383 C-113.8709375 99.63567383 -114.5309375 100.95567383 -115.2109375 102.31567383 C-115.8709375 102.31567383 -116.5309375 102.31567383 -117.2109375 102.31567383 C-117.55125 103.18192383 -117.55125 103.18192383 -117.8984375 104.06567383 C-119.55855389 106.91158764 -121.60281707 108.31409304 -124.2109375 110.31567383 C-124.9328125 111.05301758 -125.6546875 111.79036133 -126.3984375 112.55004883 C-129.72524893 115.8214134 -133.2551652 118.7199167 -136.8984375 121.62817383 C-137.57455078 122.17795898 -138.25066406 122.72774414 -138.94726562 123.29418945 C-139.59501953 123.81303711 -140.24277344 124.33188477 -140.91015625 124.86645508 C-141.49627686 125.33736572 -142.08239746 125.80827637 -142.6862793 126.29345703 C-144.2109375 127.31567383 -144.2109375 127.31567383 -146.2109375 127.31567383 C-146.2109375 127.97567383 -146.2109375 128.63567383 -146.2109375 129.31567383 C-145.48259201 129.49444061 -144.75424652 129.6732074 -144.00382996 129.85739136 C-133.28625777 132.50929115 -122.66302108 135.46901857 -112.03491211 138.45629883 C-109.71829664 139.10571783 -107.40060473 139.75131069 -105.08178711 140.39282227 C-84.1524069 146.1843749 -63.23311844 152.50345018 -43.5859375 161.87817383 C-42.60069092 162.3401416 -41.61544434 162.80210937 -40.6003418 163.27807617 C-18.15575475 173.89065236 8.61976166 187.49284497 18.81640625 211.57739258 C24.31439199 227.05565765 22.92740186 243.30657811 16.05859375 258.19458008 C12.01103437 266.43347873 6.97237882 273.50949598 0.7890625 280.31567383 C0.25023437 280.93571289 -0.28859375 281.55575195 -0.84375 282.19458008 C-26.51012257 309.98906897 -68.96564415 317.42252 -104.4609375 323.06567383 C-105.70174072 323.26443115 -106.94254395 323.46318848 -108.22094727 323.66796875 C-127.61829326 326.60978817 -146.86676392 327.66726572 -166.47802734 327.63134766 C-170.07550289 327.62818301 -173.67215608 327.6517787 -177.26953125 327.67700195 C-204.88920176 327.75189484 -230.38319613 324.01319875 -256.2109375 314.31567383 C-256.2109375 314.97567383 -256.2109375 315.63567383 -256.2109375 316.31567383 C-257.8203125 317.86645508 -257.8203125 317.86645508 -259.9609375 319.62817383 C-263.12745363 322.30967781 -265.65936958 325.0350865 -268.2109375 328.31567383 C-271.72817888 331.31567383 -271.72817888 331.31567383 -274.2109375 331.31567383 C-274.4171875 331.87254883 -274.6234375 332.42942383 -274.8359375 333.00317383 C-276.38145033 335.6024454 -278.27958308 337.16134805 -280.62890625 339.03051758 C-283.83712759 341.63670232 -286.60901635 344.5131123 -289.0859375 347.81567383 C-291.34311191 350.47117313 -293.6352265 352.1229903 -296.48828125 354.07348633 C-299.57954127 356.30255818 -302.0722644 359.11675347 -304.6875 361.87036133 C-309.02639237 366.33263452 -313.68837542 370.23616181 -318.5625 374.10473633 C-321.29404408 376.3168093 -321.29404408 376.3168093 -323.91015625 379.02270508 C-326.2109375 381.31567383 -326.2109375 381.31567383 -328.3984375 382.37817383 C-330.35962044 383.15615407 -330.35962044 383.15615407 -331.0234375 385.09692383 C-332.56428572 387.97587708 -334.55862533 389.62094501 -337.0234375 391.75317383 C-339.65433415 394.06130712 -342.23571786 396.34045418 -344.7109375 398.81567383 C-363.23783623 417.34257256 -363.23783623 417.34257256 -373.0234375 417.62817383 C-377.94826455 417.55690281 -380.38301709 416.56108461 -384.2109375 413.31567383 C-384.83613281 412.80649414 -385.46132813 412.29731445 -386.10546875 411.77270508 C-390.30259983 408.26573322 -393.96642619 404.50141688 -397.47265625 400.30786133 C-399.60842506 397.86012628 -401.91230956 395.61085555 -404.2109375 393.31567383 C-406.73217028 390.57383318 -409.22090205 387.80458826 -411.7109375 385.03442383 C-413.3908254 383.20754574 -415.11097401 381.4169609 -416.8671875 379.66333008 C-419.2109375 377.31567383 -419.2109375 377.31567383 -421.7109375 374.25317383 C-424.05132142 371.50322272 -426.37002098 369.51738413 -429.2109375 367.31567383 C-433.58245969 363.06801144 -437.6380849 358.56547235 -441.7109375 354.03442383 C-444.1449907 351.38739098 -446.66651542 348.85607629 -449.2109375 346.31567383 C-450.74442621 344.66064386 -452.26552818 342.99404247 -453.7734375 341.31567383 C-454.51722656 340.49067383 -455.26101563 339.66567383 -456.02734375 338.81567383 C-457.49847372 337.13137475 -458.93066455 335.41235651 -460.32421875 333.66333008 C-462.23473751 331.18975221 -462.23473751 331.18975221 -464.8359375 328.75317383 C-467.2109375 326.31567383 -467.2109375 326.31567383 -468.2734375 324.12817383 C-469.06725806 322.15744096 -469.06725806 322.15744096 -471.0859375 321.37817383 C-473.97199302 319.93514607 -475.25545745 317.86372359 -477.2109375 315.31567383 C-479.65019091 312.81387546 -482.14595389 310.3789912 -484.6484375 307.94067383 C-487.1625484 305.36524315 -489.48035733 302.69229434 -491.80078125 299.94458008 C-492.92577825 298.64506831 -494.1205468 297.40606453 -495.3359375 296.19067383 C-501.03545363 290.4911577 -501.03545363 290.4911577 -501.7421875 285.75708008 C-501.731875 284.47704102 -501.7215625 283.19700195 -501.7109375 281.87817383 C-501.72640625 279.96198242 -501.72640625 279.96198242 -501.7421875 278.00708008 C-501.13426861 273.78293779 -499.87595726 271.6086296 -497.2109375 268.31567383 C-495.0234375 267.12817383 -495.0234375 267.12817383 -493.2109375 266.31567383 C-492.8809375 265.32567383 -492.5509375 264.33567383 -492.2109375 263.31567383 C-491.5509375 263.31567383 -490.8909375 263.31567383 -490.2109375 263.31567383 C-490.2109375 262.65567383 -490.2109375 261.99567383 -490.2109375 261.31567383 C-488.77734375 259.90551758 -488.77734375 259.90551758 -486.7734375 258.25317383 C-483.60336533 255.56392389 -480.62512225 252.78054006 -477.7109375 249.81567383 C-474.38310733 246.44809142 -470.96581995 243.27753506 -467.375 240.19458008 C-464.78154856 237.94286502 -462.24706774 235.63172665 -459.7109375 233.31567383 C-456.49400389 230.37866676 -453.25960666 227.47295634 -449.9609375 224.62817383 C-446.8220529 221.90397927 -443.89942178 219.02571792 -440.98828125 216.06176758 C-439.14500176 214.2508974 -437.23270951 212.56246029 -435.2734375 210.87817383 C-432.46517403 208.45949604 -429.81123157 205.956677 -427.2109375 203.31567383 C-424.01064228 200.065374 -420.66869174 197.06843138 -417.2109375 194.09692383 C-415.12756672 192.24142173 -413.16812543 190.30344282 -411.2109375 188.31567383 C-408.01321006 185.0679819 -404.67469547 182.07278362 -401.21875 179.10473633 C-398.38402942 176.5788569 -395.75269838 173.86787324 -393.08984375 171.16333008 C-391.45561042 169.55627735 -389.79787172 168.07585801 -388.0234375 166.62817383 C-385.23040807 164.40796937 -385.23040807 164.40796937 -382.9609375 162.06567383 C-380.44662237 159.55135869 -377.86174719 157.18414875 -375.2109375 154.81567383 C-368.86878428 149.19995764 -368.86878428 149.19995764 -363.3359375 142.81567383 C-361.08079148 140.16256086 -358.79069907 138.51192322 -355.94140625 136.56176758 C-352.38637087 134.00182111 -349.63052953 130.83732878 -346.8984375 127.44067383 C-343.0501856 122.73051062 -338.27716259 118.9494332 -333.5234375 115.19067383 C-330.30697862 112.5827342 -327.4793489 109.64329854 -324.62109375 106.65161133 C-312.92391936 94.60962227 -312.92391936 94.60962227 -305.94499207 94.17434692 C-298.85268487 94.17753072 -291.92801229 94.73871556 -284.88671875 95.55786133 C-283.74164352 95.68629425 -282.5965683 95.81472717 -281.41679382 95.947052 C-277.78500517 96.35590421 -274.15424982 96.77325012 -270.5234375 97.19067383 C-268.10748242 97.46334621 -265.69146716 97.73548595 -263.27539062 98.00708008 C-257.58137088 98.6493866 -251.8888674 99.3038097 -246.19732666 99.9677124 C-244.31336831 100.18722326 -242.42923493 100.40524186 -240.54486084 100.62115479 C-238.30139278 100.87871833 -236.05879942 101.14268919 -233.81640625 101.40942383 C-232.6358667 101.54799805 -231.45532715 101.68657227 -230.23901367 101.8293457 C-226.24227264 102.47124751 -222.88206357 103.63307438 -219.2109375 105.31567383 C-218.89640625 104.65180664 -218.581875 103.98793945 -218.2578125 103.30395508 C-215.93730932 98.5161699 -213.64024691 94.40872055 -210.2109375 90.31567383 C-209.30601562 88.70692383 -209.30601562 88.70692383 -208.3828125 87.06567383 C-203.00952536 77.52706702 -195.14395106 67.88965013 -187.2109375 60.31567383 C-186.5509375 60.31567383 -185.8909375 60.31567383 -185.2109375 60.31567383 C-184.8396875 59.44942383 -184.8396875 59.44942383 -184.4609375 58.56567383 C-183.02793762 55.98627404 -181.42669074 54.25445791 -179.2109375 52.31567383 C-178.5509375 52.31567383 -177.8909375 52.31567383 -177.2109375 52.31567383 C-176.99050781 51.75106445 -176.77007812 51.18645508 -176.54296875 50.60473633 C-174.79110389 47.59420023 -172.6013339 45.87786198 -169.8984375 43.69067383 C-168.95355469 42.9146582 -168.00867188 42.13864258 -167.03515625 41.33911133 C-164.44907147 39.4862871 -162.20742618 38.33087764 -159.2109375 37.31567383 C-158.8809375 37.97567383 -158.5509375 38.63567383 -158.2109375 39.31567383 C-152.56511476 37.43373291 -147.82519629 34.37018501 -144.1484375 29.69067383 C-140.45007428 25.15719634 -136.29163329 24.2588109 -130.7109375 23.49536133 C-124.33971189 22.47045426 -118.69930918 20.47240943 -112.7109375 18.12817383 C-91.26402544 10.10989436 -68.93042949 5.07151378 -46.2109375 2.31567383 C-45.51522644 2.22953827 -44.81951538 2.14340271 -44.10272217 2.05465698 C-29.40682159 0.28786313 -14.7914882 -0.02583917 0 0 Z M-176.34765625 56.22192383 C-193.84691197 72.06890797 -193.84691197 72.06890797 -204.2109375 91.31567383 C-204.8709375 91.31567383 -205.5309375 91.31567383 -206.2109375 91.31567383 C-207.7245347 94.05839784 -209.21934459 96.81093016 -210.7109375 99.56567383 C-211.14019531 100.34297852 -211.56945312 101.1202832 -212.01171875 101.92114258 C-212.41777344 102.67524414 -212.82382812 103.4293457 -213.2421875 104.20629883 C-213.80776367 105.24318848 -213.80776367 105.24318848 -214.38476562 106.30102539 C-215.4638832 108.5695792 -215.4638832 108.5695792 -215.2109375 112.31567383 C-213.83540568 113.52345787 -212.44667056 114.71985423 -210.9921875 115.83129883 C-208.30212674 118.07301613 -206.15228308 120.72599615 -203.8828125 123.38208008 C-200.03758764 127.94827497 -200.03758764 127.94827497 -195.2109375 131.31567383 C-195.18515625 130.32051758 -195.159375 129.32536133 -195.1328125 128.30004883 C-194.18586919 102.20685186 -187.15635418 75.96992199 -172.2109375 54.31567383 C-174.43944485 54.09376799 -174.43944485 54.09376799 -176.34765625 56.22192383 Z M-112.0234375 79.87817383 C-112.68633789 80.14774902 -113.34923828 80.41732422 -114.03222656 80.69506836 C-129.35547452 87.03308953 -148.27759999 95.19025307 -155.2734375 111.44067383 C-156.28811284 115.63466524 -156.40483576 118.17682651 -155.2109375 122.31567383 C-153.29472175 124.73578683 -153.29472175 124.73578683 -151.2109375 126.31567383 C-150.8190625 125.88254883 -150.4271875 125.44942383 -150.0234375 125.00317383 C-147.92112449 123.04584792 -145.67767116 121.78396768 -143.2109375 120.31567383 C-141.5327377 118.99688613 -139.8676769 117.66132242 -138.2109375 116.31567383 C-137.30214844 115.59508789 -136.39335937 114.87450195 -135.45703125 114.13208008 C-134.53019531 113.38829102 -133.60335938 112.64450195 -132.6484375 111.87817383 C-131.71902344 111.13696289 -130.78960937 110.39575195 -129.83203125 109.63208008 C-127.27069917 107.36848854 -125.29860253 105.0107414 -123.2109375 102.31567383 C-121.56090922 100.96180447 -119.8934988 99.6288924 -118.2109375 98.31567383 C-111.64832085 92.46252925 -106.62125174 84.87621252 -102.2109375 77.31567383 C-105.88380343 77.31567383 -108.67988392 78.51482418 -112.0234375 79.87817383 Z M-234.0234375 141.94067383 C-235.94468822 144.41951151 -236.58656453 146.24515949 -236.7109375 149.37817383 C-236.06392044 154.4734332 -234.94965658 156.91503902 -230.9609375 160.12817383 C-227.44424153 161.64674709 -225.01132923 161.72285866 -221.2109375 161.31567383 C-217.54636006 159.64995681 -215.25460895 157.78991529 -213.2109375 154.31567383 C-212.49660629 151.66632561 -212.49660629 151.66632561 -212.2109375 149.31567383 C-212.74203125 148.9521582 -213.273125 148.58864258 -213.8203125 148.21411133 C-218.40687 144.94995544 -221.26368462 142.07662079 -224.2109375 137.31567383 C-228.50669394 137.31567383 -230.93318178 139.05643516 -234.0234375 141.94067383 Z M-178.2109375 154.31567383 C-178.29506086 163.68413447 -178.06775903 172.9892653 -177.5546875 182.34301758 C-177.48809937 183.61617325 -177.42151123 184.88932892 -177.35290527 186.20106506 C-177.17788635 189.54056088 -176.99997017 192.87987211 -176.82025146 196.21911621 C-176.56657867 200.93932809 -176.31680596 205.65974257 -176.06896973 210.38026428 C-175.93741435 212.88235332 -175.80396112 215.38434352 -175.66833496 217.88621521 C-174.64480924 237.23649745 -174.64480924 237.23649745 -181.64453125 245.02270508 C-186.39112521 249.91731472 -191.41010352 254.51872249 -196.65234375 258.87817383 C-198.45664847 260.42905445 -198.45664847 260.42905445 -200.2109375 263.31567383 C-191.55039412 263.36275215 -182.8899073 263.39791511 -174.22926617 263.41929817 C-170.20447343 263.42957922 -166.1797704 263.443437 -162.1550293 263.46655273 C-112.33447917 263.74472434 -60.52303735 261.51357618 -18.2734375 232.00317383 C-17.66363037 231.58261719 -17.05382324 231.16206055 -16.42553711 230.72875977 C-14.55364018 229.41354326 -14.55364018 229.41354326 -12.2109375 227.31567383 C-12.2109375 221.17390726 -18.19427674 216.16511457 -22.2109375 211.87817383 C-42.30274207 192.39012966 -70.79175491 186.38638772 -97.32983398 181.43630981 C-110.90823951 178.89325161 -124.08904075 175.68612689 -137.2109375 171.31567383 C-137.92975098 171.08058105 -138.64856445 170.84548828 -139.38916016 170.60327148 C-149.54095354 167.22911344 -159.08595461 162.63898833 -168.67211914 157.92211914 C-169.62078857 157.45644531 -170.56945801 156.99077148 -171.546875 156.51098633 C-172.39813965 156.08833496 -173.2494043 155.66568359 -174.12646484 155.23022461 C-176.1368044 154.18174879 -176.1368044 154.18174879 -178.2109375 154.31567383 Z " fill="#FB5350" transform="translate(501.2109375,8.684326171875)"/>
<path d="M0 0 C0.84746943 3.3604857 1.28348125 5.32660411 -0.08203125 8.5703125 C-4.21858536 14.67709893 -8.69285122 20.31473274 -13.48828125 25.91796875 C-17.39144405 30.70738624 -20.65629517 35.79868138 -24 41 C-16.74 41.99 -9.48 42.98 -2 44 C-1 47 -1 47 -2.58984375 50.37109375 C-3.36042459 51.73340373 -4.14384997 53.08849929 -4.9375 54.4375 C-5.35136963 55.15470215 -5.76523926 55.8719043 -6.19165039 56.61083984 C-9.87057187 62.91937085 -13.81505633 69.01482917 -18 75 C-18.3933252 75.56460938 -18.78665039 76.12921875 -19.19189453 76.7109375 C-21.29078309 79.71614566 -23.41721276 82.69299038 -25.6015625 85.63671875 C-27.17975087 87.78047579 -28.42662822 89.78409981 -29.7109375 92.14453125 C-31.59652808 95.30931356 -32.85216651 97.05307409 -36 99 C-41.80991925 99.9254254 -47.7135877 99.04903094 -53.50292969 98.30664062 C-57.08046753 97.86731842 -60.65245409 97.65730932 -64.25 97.4375 C-66.16683962 97.29395786 -68.08358662 97.14912488 -70 97 C-70.26176025 97.70455322 -70.52352051 98.40910645 -70.79321289 99.13500977 C-72.08603548 102.20425375 -73.62523008 104.96632977 -75.30859375 107.83984375 C-76.2977478 109.5415271 -76.2977478 109.5415271 -77.30688477 111.27758789 C-77.82860764 112.1726152 -77.82860764 112.1726152 -78.36087036 113.08572388 C-102.92522217 153.88754809 -102.92522217 153.88754809 -109 200 C-107.3961849 204.09317227 -105.91623607 206.86910685 -102 209 C-91.33076046 211.10577096 -81.94875279 206.07579849 -73.25 200.4375 C-62.94480097 193.28036438 -53.00015862 185.61006735 -43.125 177.875 C-42.53605957 177.41375732 -41.94711914 176.95251465 -41.34033203 176.47729492 C-36.85905911 172.94242321 -34.88619458 171.2287133 -33.6875 165.625 C-25.47123221 131.54570206 1.97040265 102.00042455 30.95947266 83.76757812 C44.8079623 75.30480029 58.29564515 69.85218709 74.6875 69.6875 C76.10192383 69.64399414 76.10192383 69.64399414 77.54492188 69.59960938 C85.43855799 69.52908204 92.44947544 71.04122953 98.625 76.1875 C100.58042756 80.1872382 100.79713339 83.63109584 100 88 C98.88836893 90.34784148 97.66537664 91.97032223 96 94 C97.03060547 94.47179687 97.03060547 94.47179687 98.08203125 94.953125 C98.98308594 95.38109375 99.88414062 95.8090625 100.8125 96.25 C101.70582031 96.66765625 102.59914063 97.0853125 103.51953125 97.515625 C107.39223158 99.83314646 108.70508523 102.16182118 110.1875 106.375 C114.94780825 128.24014467 105.89488889 153.8384998 95.57739258 172.93945312 C93.78862392 176.25831937 92.258026 179.19751155 92 183 C93.87947452 185.26313679 93.87947452 185.26313679 96.875 185.5 C108.41658327 185.0478555 120.98469144 174.44236626 128.609375 166.27636719 C134.25825171 159.76090144 139.26610253 152.79786322 143 145 C142.25105469 144.89042969 141.50210937 144.78085938 140.73046875 144.66796875 C136.48784352 143.63007331 133.89992025 141.18393306 131 138 C127.51260974 131.17684514 128.53510017 123.95917105 130.5 116.8125 C137.15307614 96.78323919 153.34269135 74.33555787 171.9375 64.0625 C176.85677638 61.73993143 180.61248316 61.48690316 186 62 C187 63 187 63 187.4375 66.3125 C187.42618508 72.52439023 183.9569101 77.71980339 181 83 C181.60134766 82.89453857 182.20269531 82.78907715 182.82226562 82.68041992 C221.92661927 75.87114897 221.92661927 75.87114897 241.6875 75.4375 C242.64986572 75.39850586 243.61223145 75.35951172 244.60375977 75.31933594 C250.98752448 75.29412857 250.98752448 75.29412857 253.66723633 77.16235352 C260.3393871 84.64117575 261.44570809 95.4449013 261.43359375 105.02734375 C260.50709949 111.37925482 256.82818291 115.7521797 252.75 120.4375 C252.25693359 121.01314697 251.76386719 121.58879395 251.25585938 122.18188477 C248.77319213 125.05460409 246.25266557 127.81845897 243.5 130.4375 C229.98834802 143.59443081 212.46658152 166.537448 210.83203125 186 C210.70620604 191.32572681 210.70620604 191.32572681 213 196 C217.98133633 199.08528714 223.34956012 198.62857764 229 198 C243.54888435 194.12685106 256.71071444 183.59740839 268.20703125 174.25 C271 172 271 172 274 170 C274.83842381 167.43140126 275.53783423 164.92806355 276.1875 162.3125 C281.43920798 143.06372429 293.3369195 128.19610055 307 114 C307.52142578 113.45666016 308.04285156 112.91332031 308.58007812 112.35351562 C315.64803441 105.03039846 322.88996707 98.17960101 331 92 C331.5161084 91.60216309 332.0322168 91.20432617 332.56396484 90.79443359 C350.34085934 77.18972156 371.39321758 65.92510545 394.1875 65.6875 C395.09564453 65.65849609 396.00378906 65.62949219 396.93945312 65.59960938 C404.32663554 65.5308668 410.41339127 66.97867199 416.15625 71.81640625 C416.5996875 72.39261719 417.043125 72.96882813 417.5 73.5625 C417.9640625 74.14128906 418.428125 74.72007812 418.90625 75.31640625 C422.9768924 81.58228795 421.74955964 92.30360018 420.31640625 99.37109375 C416.71282582 110.86965539 410.25392001 119.40043845 402 128 C400.98486328 129.10988281 400.98486328 129.10988281 399.94921875 130.2421875 C378.57638732 152.86277368 345.86010592 168.57217547 317 179 C316.34 179 315.68 179 315 179 C316.00517997 195.98740475 316.00517997 195.98740475 325.06640625 209.80859375 C333.6330666 215.3777118 343.69859577 214.97756159 353.5 213.45703125 C374.27134808 208.23969971 391.90727366 194.50092561 408 181 C409.95513457 179.37115279 411.91343938 177.74610283 413.875 176.125 C415.17050781 175.04605469 415.17050781 175.04605469 416.4921875 173.9453125 C418.90351454 172.07484386 421.3510909 170.50959336 424 169 C425.37197856 183.60056194 425.37197856 183.60056194 422.2421875 189.07421875 C419.94518647 191.55420122 417.54792877 193.78083623 415 196 C413.87210893 197.24982524 412.76630624 198.52006877 411.6875 199.8125 C389.1549388 225.56399852 362.50174084 251.96151605 326.8125 255.75 C313.68634808 256.5608229 301.93008562 254.28053006 291.46484375 245.9921875 C276.90410432 232.428093 273.13248067 213.01375443 272 194 C269.62707909 193.77325125 269.62707909 193.77325125 267.28540039 196.51928711 C266.13470364 197.68393389 264.98916879 198.85369378 263.84765625 200.02734375 C263.23288925 200.64968399 262.61812225 201.27202423 261.98472595 201.91322327 C259.35222575 204.57832434 256.73127912 207.25467125 254.11010742 209.9309082 C246.40465901 217.78433237 238.73636474 225.2821166 230 232 C229.07880371 232.71913574 228.15760742 233.43827148 227.20849609 234.17919922 C218.06035823 241.24008037 206.76561288 249.00729224 194.765625 247.76953125 C188.12065463 246.64345406 183.32794914 244.16472348 179.3046875 238.6953125 C174.53144078 231.1088479 172.63240521 223.85367287 172 215 C171.94585938 214.32453125 171.89171875 213.6490625 171.8359375 212.953125 C171.26974874 199.26165126 176.10805272 187.02462785 182 175 C182.2897168 174.39220703 182.57943359 173.78441406 182.87792969 173.15820312 C191.13081331 155.98101483 203.04217572 140.73984871 215 126 C213.07287739 126.32919724 211.14580528 126.65869008 209.21875 126.98828125 C207.99115967 127.19767334 206.76356934 127.40706543 205.4987793 127.62280273 C202.82372128 128.08143004 200.15110973 128.55188581 197.47973633 129.03149414 C186.13749791 131.05616215 186.13749791 131.05616215 180.79296875 131.5078125 C175.33508543 132.02347897 171.33026553 132.43164096 167.62109375 136.8046875 C165.80708566 139.76944895 164.39303112 142.89302381 162.96142578 146.05517578 C161.33087362 149.35354514 159.22385951 152.28186386 157.0625 155.25 C156.64137939 155.83257568 156.22025879 156.41515137 155.78637695 157.01538086 C152.47701936 161.51241953 148.88469207 165.69031251 145.07421875 169.7734375 C143.18675832 171.79952496 141.40379289 173.87896905 139.625 176 C127.93839163 189.34466265 109.15707026 207.1614916 91 210 C89.59622167 210.00307996 88.19227336 209.98143593 86.7890625 209.94140625 C77.43295063 209.52863566 77.43295063 209.52863566 69.41796875 213.703125 C66.77492957 216.44145249 64.43441271 219.39518902 62.16650391 222.44824219 C52.77140417 234.9462024 36.73054619 245.66384253 21.375 248.5625 C9.8159369 249.82655307 -0.31436501 247.06518383 -9.5625 240.05859375 C-22.08105276 229.39110748 -28.6325056 216.79838132 -32.64453125 201.125 C-32.87257446 200.24585938 -33.10061768 199.36671875 -33.33557129 198.4609375 C-33.89352896 196.30808379 -34.44824886 194.15445112 -35 192 C-35.86689453 192.87213135 -36.73378906 193.7442627 -37.62695312 194.64282227 C-40.87466792 197.90877402 -44.12580327 201.17130299 -47.37792969 204.43286133 C-48.77924133 205.83917075 -50.17965036 207.24638022 -51.57910156 208.65454102 C-53.60239038 210.69009656 -55.62901128 212.72228531 -57.65625 214.75390625 C-58.2711731 215.37399063 -58.88609619 215.99407501 -59.51965332 216.63294983 C-63.84555778 220.95939884 -68.35127609 225.02375947 -73 229 C-73.65305618 229.55888412 -74.30611237 230.11776825 -74.97895813 230.69358826 C-90.21066826 243.67004505 -109.01009893 259.09686311 -129.875 259.25 C-130.91720703 259.2809375 -130.91720703 259.2809375 -131.98046875 259.3125 C-138.09516233 259.35856172 -141.95991293 257.74153774 -146.5625 253.8125 C-154.05831744 245.16347987 -156.59203648 236.85122649 -156.29296875 225.4296875 C-154.73870208 207.23440566 -147.27611404 189.97918778 -141 173 C-147.45400609 178.79622596 -147.45400609 178.79622596 -153.875 184.62890625 C-154.926875 185.58603516 -154.926875 185.58603516 -156 186.5625 C-156.721875 187.22378906 -157.44375 187.88507813 -158.1875 188.56640625 C-160 190 -160 190 -162 190 C-163.92586973 174.26383364 -163.92586973 174.26383364 -160.86914062 169.08349609 C-157.88778652 165.65252482 -154.29355281 162.97910166 -150.65380859 160.28369141 C-142.69650536 154.10720773 -136.61052232 144.87919461 -130.48876953 136.93017578 C-128.96689825 134.9570839 -127.43501721 132.99205238 -125.90234375 131.02734375 C-112.29843912 114.25580689 -112.29843912 114.25580689 -101 96 C-105.41653692 95.91165114 -109.83284148 95.85916013 -114.25 95.8125 C-116.10238281 95.77479492 -116.10238281 95.77479492 -117.9921875 95.73632812 C-125.22763878 95.67920614 -131.4833873 96.28475752 -138.40527344 98.44799805 C-141.28482063 99.06059272 -143.18279599 98.76725883 -146 98 C-145.52059489 92.0698245 -144.31629022 87.68695407 -141.5625 82.4375 C-141.21268066 81.7556665 -140.86286133 81.07383301 -140.50244141 80.37133789 C-132.23387982 64.650215 -122.56443719 49.05670248 -105 43 C-98.72167327 41.3668244 -92.71059211 40.88689755 -86.2421875 41.11328125 C-72.53401496 42.16526004 -72.53401496 42.16526004 -59.79443359 38.68261719 C-56.62588202 35.32116285 -55.18334186 31.31436042 -53.75439453 26.98486328 C-49.17518107 14.93664146 -37.15910453 4.52246002 -25.89453125 -0.90625 C-16.80354925 -4.34143888 -8.81221577 -3.4269728 0 0 Z M337.53369141 123.59765625 C328.10155755 134.33372789 319.39935619 147.4466956 318 162 C333.17586665 156.28030784 346.5231991 148.3114057 359 138 C359.77085937 137.3709375 360.54171875 136.741875 361.3359375 136.09375 C368.33419134 130.19483872 373.77652873 123.58596596 378.75 115.9375 C379.31545532 115.07112915 379.31545532 115.07112915 379.89233398 114.18725586 C384.56916564 106.92314355 384.56916564 106.92314355 385.75 98.625 C385.25698605 96.09510507 385.25698605 96.09510507 384 95 C366.59411896 93.63780061 348.52611543 111.62056288 337.53369141 123.59765625 Z M67.80859375 109.421875 C66.95442871 109.9468457 66.10026367 110.47181641 65.22021484 111.01269531 C64.30191895 111.58600586 63.38362305 112.15931641 62.4375 112.75 C61.02525146 113.62930176 61.02525146 113.62930176 59.58447266 114.52636719 C22.52765935 137.37941827 22.52765935 137.37941827 1.29321289 173.77880859 C0.59487093 176.86655829 -0.05489633 179.96063969 -0.6875 183.0625 C-1.02491211 184.63741211 -1.02491211 184.63741211 -1.36914062 186.24414062 C-3.68314761 195.97801163 -3.68314761 195.97801163 -1.1875 205.25 C-0.465625 206.1575 0.25625 207.065 1 208 C1.45375 208.5775 1.9075 209.155 2.375 209.75 C8.00007445 214.07698035 16.17469767 214.00850328 22.92382812 213.37158203 C34.27126522 211.34067901 44.96069366 202.68661017 54 196 C53.86722656 195.28714844 53.73445313 194.57429688 53.59765625 193.83984375 C47.56862709 161.14226224 57.88780495 135.23129187 74 107 C71.31891451 107 70.09131273 108.0174966 67.80859375 109.421875 Z " fill="#FF4D4D" transform="translate(722,59)"/>
<path d="M0 0 C1.27536621 -0.01015137 2.55073242 -0.02030273 3.86474609 -0.03076172 C16.46137036 0.08537389 30.87113779 1.39952406 40.8046875 10 C51.94991265 21.97695837 52.29216165 40.13983081 52.15234375 55.56640625 C51.16137397 80.74720235 38.9825963 99.41395274 24.60205078 119.21142578 C22.32499818 122.37542542 20.10601791 125.57870688 17.88330078 128.78100586 C1.88042014 151.82097662 -15.12195788 173.7613888 -33.5 194.9375 C-35.14633222 196.83583171 -36.79229175 198.73448315 -38.4375 200.63378906 C-39.43681712 201.78737576 -40.43675708 202.9404234 -41.4375 204.09277344 C-60.74232625 225.6444702 -60.74232625 225.6444702 -75 250.4375 C-74.89660605 253.3224831 -74.89660605 253.3224831 -74 255.4375 C-63.59134972 256.44478874 -57.72778707 251.7110979 -49.8125 245.4375 C-38.03064258 235.50896846 -27.20821586 224.75256319 -16.75390625 213.4453125 C-13.53217585 209.96921258 -10.20591679 206.61445319 -6.82592773 203.29248047 C-4.96702301 201.40399831 -3.22564819 199.44785808 -1.5 197.4375 C1.44578795 194.00967403 4.56175347 190.82615183 7.8125 187.6875 C9.71273884 185.73296862 11.50252246 183.7369914 13.2890625 181.6796875 C16.88334457 177.54157159 20.60884031 173.54388276 24.375 169.5625 C32.6560415 160.76167698 40.71483315 151.81268871 48.55273438 142.61547852 C51.54538055 139.11020313 54.58325944 135.65762184 57.6875 132.25 C62.32428731 127.1370021 66.66245922 121.80454435 71 116.4375 C72.43666276 114.6868126 73.87417117 112.93681885 75.3125 111.1875 C76.87663997 109.27217143 78.43902699 107.35541048 80 105.4375 C80.43650879 104.90205566 80.87301758 104.36661133 81.32275391 103.81494141 C87.64203639 96.04679345 93.76011926 88.15017604 99.75 80.125 C113.4284208 61.81656602 127.11335265 45.15393608 146.3125 32.375 C147.15627197 31.80120605 147.15627197 31.80120605 148.01708984 31.21582031 C151.96396984 28.68526257 155.31872031 27.6290325 160 27.4375 C167.78521519 33.18373026 172.81359948 44.26502926 175 53.4375 C175.47178887 61.32584826 171.82184866 67.26872611 167.9375 73.875 C167.31625244 74.95612061 166.69500488 76.03724121 166.05493164 77.15112305 C155.90944297 94.67744526 145.1397474 111.81724207 134.0546875 128.76171875 C118.04567259 153.23868647 102.92785561 178.3628461 89.20214844 204.19335938 C88.11667239 206.21969889 87.00742825 208.22957857 85.8828125 210.234375 C70.08195991 236.43964704 70.08195991 236.43964704 65.84765625 265.21484375 C67.10758896 269.0101878 67.10758896 269.0101878 70 271.4375 C75.13283047 271.98211719 78.45964951 270.53907009 82.75 267.9375 C83.36343262 267.57438721 83.97686523 267.21127441 84.60888672 266.8371582 C102.40209781 256.07052106 118.77041398 239.42663157 132 223.4375 C132.43715332 222.91945801 132.87430664 222.40141602 133.32470703 221.86767578 C159.51090898 190.79566856 179.9307512 155.2625844 199.24072266 119.65087891 C200.81067502 116.78330842 202.41545452 113.94061716 204.04296875 111.10546875 C204.88282054 109.61198369 205.72266506 108.11849454 206.5625 106.625 C206.93874512 105.99271484 207.31499023 105.36042969 207.70263672 104.70898438 C210.41802334 99.79044703 210.10571837 96.74939326 209 91.4375 C208.67 90.468125 208.34 89.49875 208 88.5 C206.41880713 83.65759684 205.02052262 79.08478164 206.85253906 74.13330078 C210.04465184 67.94619773 213.64721178 62.22900839 217.6875 56.5625 C218.29891846 55.6977002 218.91033691 54.83290039 219.5402832 53.94189453 C232.06993097 36.39087935 232.06993097 36.39087935 238 32.4375 C241.375 31.9375 241.375 31.9375 245 32.4375 C250.69112278 37.74059168 253.67571465 44.7229926 254.11621094 52.48535156 C254.27302361 59.2613095 253.20624462 65.31895138 251.5625 71.875 C251.29518066 72.95555664 251.02786133 74.03611328 250.75244141 75.14941406 C233.77001845 141.7189795 198.57216951 215.56526137 151.22265625 266.06640625 C149.29288276 268.12505741 147.45021416 270.22432597 145.625 272.375 C138.41839964 280.65492382 130.45852715 288.44626837 122 295.4375 C121.48630859 295.87030273 120.97261719 296.30310547 120.44335938 296.74902344 C104.46566853 310.17135969 84.82033 325.24104299 63 323.4375 C51.7134972 320.44032551 40.58527439 310.41695029 34.32421875 300.88671875 C24.66046497 282.55694388 27.19581287 257.6595202 33 238.4375 C33.35818375 237.12633236 33.7162564 235.81513436 34.07421875 234.50390625 C40.61520717 211.98645892 52.28817534 190.21716601 62.97412109 169.44091797 C64.67504315 166.11922201 66.33558139 162.77760868 68 159.4375 C61.66587044 166.77908841 55.38222263 174.14713978 49.265625 181.671875 C42.00590473 190.53374043 34.50736378 199.20123566 27.04296875 207.890625 C24.99832321 210.27133161 22.95973474 212.65702809 20.92578125 215.046875 C15.46004808 221.46191972 9.92314045 227.78411113 4.2265625 233.99609375 C2.30866793 236.09904833 0.42623955 238.22419156 -1.4375 240.375 C-5.19545947 244.69886396 -9.0780874 248.90587878 -12.9609375 253.1171875 C-14.62325067 254.92145739 -16.26650655 256.73851869 -17.89282227 258.57543945 C-23.86697967 265.30670156 -30.09420672 271.75055908 -36.44555664 278.12329102 C-38.17480011 279.86222891 -39.893019 281.611594 -41.61132812 283.36132812 C-49.26205903 291.08373422 -57.30012446 297.92602546 -66 304.4375 C-66.94012939 305.14430908 -67.88025879 305.85111816 -68.84887695 306.5793457 C-77.05502105 312.66092175 -86.44142371 318.2445956 -96.98828125 317.25 C-103.57770861 316.02167956 -108.73602474 312.51003785 -112.6953125 307.13671875 C-114.25393656 304.61864018 -115.65661568 302.07629064 -117 299.4375 C-117.391875 298.66921875 -117.78375 297.9009375 -118.1875 297.109375 C-121.92854553 289.24217631 -123.36391386 281.0764374 -124 272.4375 C-124.09861328 271.37015625 -124.09861328 271.37015625 -124.19921875 270.28125 C-125.2434083 249.25343293 -114.60183667 232.74337224 -102.59130859 216.59033203 C-100.37315694 213.58946347 -98.21769158 210.54618972 -96.0625 207.5 C-94.3795183 205.14258179 -92.69002096 202.78987503 -91 200.4375 C-90.47825195 199.70917969 -89.95650391 198.98085937 -89.41894531 198.23046875 C-79.97635558 185.08821461 -70.19547711 172.41809854 -58.6171875 161.07324219 C-56.98099207 159.41827398 -55.45258693 157.7034223 -53.9375 155.9375 C-50.40165716 151.83239448 -46.70664762 147.88754759 -43 143.9375 C-38.80023102 139.45814765 -34.63304829 134.96894588 -30.62890625 130.3125 C-28.66334911 128.04998819 -26.64326691 125.84059317 -24.625 123.625 C-20.71110745 119.28726799 -16.98671884 114.82605445 -13.31640625 110.28125 C-10.91900231 107.3380627 -8.46065188 104.45291024 -6 101.5625 C7.53961849 85.79004094 7.53961849 85.79004094 13 66.4375 C11.65959069 62.66759882 10.48396796 61.6918301 6.9375 59.828125 C2.6347334 58.07845919 -1.39872964 57.93990791 -6 58 C-6.83668213 58.00902344 -7.67336426 58.01804688 -8.53540039 58.02734375 C-16.42918703 58.24396219 -23.56032383 59.79791325 -31 62.4375 C-31.67385742 62.66872559 -32.34771484 62.89995117 -33.04199219 63.13818359 C-57.161935 71.58402012 -80.19873278 84.44289904 -102.2734375 97.17578125 C-112.35593944 102.97063049 -122.67472548 108.3483737 -132.94287109 113.8046875 C-135.59162646 115.2193877 -138.23051418 116.64959236 -140.86328125 118.09375 C-141.5490625 118.46781982 -142.23484375 118.84188965 -142.94140625 119.22729492 C-144.63645253 120.15377573 -146.32818892 121.08630582 -148.01953125 122.01953125 C-152.23117106 124.02323407 -156.14789408 125.80792118 -160.8125 124.875 C-163.73511601 122.95442377 -164.20155366 121.84904344 -165 118.4375 C-165.77802463 109.33756636 -163.08749767 100.94845205 -160.75 92.25 C-160.34928779 90.72356229 -159.94954169 89.19687062 -159.55078125 87.66992188 C-153.08882069 63.04305259 -147.62629962 45.80843792 -124.50390625 31.94042969 C-118.68655978 28.55110336 -112.80322058 25.28490688 -106.90332031 22.04199219 C-104.1293707 20.50899548 -101.37101808 18.95160562 -98.6171875 17.3828125 C-96.99479265 16.46353993 -95.37239687 15.544269 -93.75 14.625 C-93.0060498 14.19840088 -92.26209961 13.77180176 -91.49560547 13.33227539 C-86.33976102 10.4375 -86.33976102 10.4375 -83 10.4375 C-81.74335022 13.34350261 -81 15.23354584 -81 18.4375 C-80.44352783 18.22657715 -79.88705566 18.0156543 -79.3137207 17.79833984 C-65.71750487 12.674564 -52.10923757 7.94503009 -38 4.4375 C-36.73397949 4.11990723 -36.73397949 4.11990723 -35.44238281 3.79589844 C-23.67153276 0.96209211 -12.06910594 0.05474257 0 0 Z " fill="#FF4D4D" transform="translate(1287,-0.4375)"/>
<path d="M0 0 C6.90204801 5.56107868 10.86734179 12.6757883 12.234375 21.390625 C11.51189154 25.45459446 9.98126549 26.68512829 6.734375 29.203125 C3.79743239 30.71088651 0.80914125 32.00403315 -2.265625 33.203125 C-0.63357886 38.35695492 1.18086768 43.21932198 3.421875 48.140625 C6.11656833 54.63089248 7.32516118 59.89416939 4.8359375 66.63671875 C0.87758677 74.5174352 -4.73312755 81.52361217 -9.9296875 88.6171875 C-12.99039412 92.80561562 -15.98022948 97.03391877 -18.890625 101.328125 C-19.49245605 102.1958252 -19.49245605 102.1958252 -20.10644531 103.08105469 C-26.22670236 112.20092181 -27.15023574 120.30908312 -26.265625 131.203125 C-25.44977099 135.11795935 -24.14578956 137.46965453 -21.015625 140.078125 C-13.29404489 143.23695323 -6.92199252 141.87545617 0.734375 139.203125 C13.0127354 133.74439581 24.51446462 125.59756218 34.28125 116.3828125 C35.734375 115.203125 35.734375 115.203125 37.734375 115.203125 C37.83878906 114.44902344 37.94320313 113.69492188 38.05078125 112.91796875 C38.79843667 109.94870865 39.5597628 108.91749461 41.671875 106.765625 C45.13493909 103.0073725 48.14371502 99.04276237 51.109375 94.890625 C51.55015381 94.27968994 51.99093262 93.66875488 52.44506836 93.03930664 C54.28781929 90.44232685 55.7213639 88.24215831 56.734375 85.203125 C56.05375 85.161875 55.373125 85.120625 54.671875 85.078125 C50.43592742 83.81635338 47.68904562 81.44717058 44.734375 78.203125 C41.24698474 71.37997014 42.26947517 64.16229605 44.234375 57.015625 C50.88745114 36.98636419 67.07706635 14.53868287 85.671875 4.265625 C90.59115138 1.94305643 94.34685816 1.69002816 99.734375 2.203125 C100.734375 3.203125 100.734375 3.203125 101.171875 6.515625 C101.16056008 12.72751523 97.6912851 17.92292839 94.734375 23.203125 C95.33572266 23.09766357 95.93707031 22.99220215 96.55664062 22.88354492 C135.66099427 16.07427397 135.66099427 16.07427397 155.421875 15.640625 C156.86542358 15.58213379 156.86542358 15.58213379 158.33813477 15.52246094 C164.72189948 15.49725357 164.72189948 15.49725357 167.40161133 17.36547852 C174.0737621 24.84430075 175.18008309 35.6480263 175.16796875 45.23046875 C174.24147449 51.58237982 170.56255791 55.9553047 166.484375 60.640625 C165.99130859 61.21627197 165.49824219 61.79191895 164.99023438 62.38500977 C162.50756713 65.25772909 159.98704057 68.02158397 157.234375 70.640625 C143.72272302 83.79755581 126.20095652 106.740573 124.56640625 126.203125 C124.44058104 131.52885181 124.44058104 131.52885181 126.734375 136.203125 C131.71571133 139.28841214 137.08393512 138.83170264 142.734375 138.203125 C157.23042793 134.34404064 170.3135005 123.88964482 181.74609375 114.55078125 C184.33587773 112.51619279 186.90010526 110.86121019 189.734375 109.203125 C190.93477758 116.3500076 192.08023164 124.04234999 188.37738037 130.60998535 C183.89990103 136.49767593 178.38410722 141.37752024 172.921875 146.328125 C171.32453479 147.84711492 169.73139479 149.37053446 168.14257812 150.8984375 C160.31204913 158.36819197 152.27854632 165.55542751 143.734375 172.203125 C142.81720703 172.91992432 141.90003906 173.63672363 140.95507812 174.37524414 C131.79807153 181.43450549 120.50832455 189.21127714 108.5 187.97265625 C101.85502963 186.84657906 97.06232414 184.36784848 93.0390625 178.8984375 C88.26581578 171.3119729 86.36678021 164.05679787 85.734375 155.203125 C85.68023438 154.52765625 85.62609375 153.8521875 85.5703125 153.15625 C85.00412374 139.46477626 89.84242772 127.22775285 95.734375 115.203125 C96.0240918 114.59533203 96.31380859 113.98753906 96.61230469 113.36132812 C104.86518831 96.18413983 116.77655072 80.94297371 128.734375 66.203125 C126.80725239 66.53232224 124.88018028 66.86181508 122.953125 67.19140625 C121.72553467 67.40079834 120.49794434 67.61019043 119.2331543 67.82592773 C116.55809628 68.28455504 113.88548473 68.75501081 111.21411133 69.23461914 C99.87187291 71.25928715 99.87187291 71.25928715 94.52734375 71.7109375 C89.06946043 72.22660397 85.06464053 72.63476596 81.35546875 77.0078125 C79.54146066 79.97257395 78.12740612 83.09614881 76.69580078 86.25830078 C75.06524862 89.55667014 72.95823451 92.48498886 70.796875 95.453125 C70.37575439 96.03570068 69.95463379 96.61827637 69.52075195 97.21850586 C65.60652506 102.53749276 61.23942304 107.37987654 56.734375 112.203125 C55.45773373 113.65637672 54.18649214 115.11439792 52.921875 116.578125 C48.06732955 122.12938763 48.06732955 122.12938763 45.734375 124.203125 C45.074375 124.203125 44.414375 124.203125 43.734375 124.203125 C43.64414063 124.78578125 43.55390625 125.3684375 43.4609375 125.96875 C42.55015783 128.76964233 41.25376546 129.94948604 39.109375 131.953125 C36.44756426 134.45712087 33.98961848 137.03707771 31.61328125 139.80859375 C27.08288999 145.03456759 22.19580531 149.88758565 17.296875 154.765625 C15.94239258 156.1259082 15.94239258 156.1259082 14.56054688 157.51367188 C-24.00251779 196.02088851 -24.00251779 196.02088851 -46.578125 196.515625 C-52.2688497 196.47764463 -55.09446982 196.04497846 -59.265625 192.203125 C-59.77480469 191.76097656 -60.28398438 191.31882812 -60.80859375 190.86328125 C-66.01480044 184.93127631 -65.78597937 174.82476052 -65.61328125 167.40625 C-64.75380118 154.4801626 -61.09834267 141.84925552 -57.19677734 129.56176758 C-56.94621582 128.77181396 -56.6956543 127.98186035 -56.4375 127.16796875 C-56.0986377 126.12564087 -56.0986377 126.12564087 -55.75292969 125.06225586 C-55.13885049 123.0397862 -55.13885049 123.0397862 -55.265625 120.203125 C-55.63171875 120.62980469 -55.9978125 121.05648437 -56.375 121.49609375 C-61.18206628 127.04711077 -66.14501093 132.44368299 -71.140625 137.82421875 C-73.05354549 139.88585715 -74.94666999 141.95995701 -76.828125 144.05078125 C-83.42143182 151.34070234 -90.26143492 158.39168679 -97.16421509 165.38781738 C-98.25854393 166.49950761 -99.34945299 167.61457642 -100.43661499 168.73327637 C-109.64719376 178.19673776 -120.26908755 188.7286661 -134.265625 189.203125 C-144.06504342 186.73824061 -150.29368526 176.99555846 -155.453125 169.015625 C-166.83470139 149.67601413 -171.49420485 127.43145168 -167.203125 105.203125 C-163.63883624 92.38476543 -155.34031536 83.42878063 -146.265625 74.203125 C-145.24693639 73.14627599 -144.22870094 72.08898999 -143.2109375 71.03125 C-137.76881741 65.42956022 -132.14985611 60.26333401 -126.0234375 55.40234375 C-123.1711186 53.12776083 -120.41068741 50.76442507 -117.640625 48.390625 C-93.02953598 27.92356254 -64.642319 12.23284254 -34.265625 2.203125 C-33.59837402 1.97866699 -32.93112305 1.75420898 -32.24365234 1.52294922 C-22.72954957 -1.60520519 -9.31502064 -5.12548983 0 0 Z M-28.92578125 43.80859375 C-30.09955322 44.37336426 -31.2733252 44.93813477 -32.48266602 45.52001953 C-33.76474003 46.14303153 -35.0465534 46.76658015 -36.328125 47.390625 C-36.97611053 47.70513611 -37.62409607 48.01964722 -38.29171753 48.34368896 C-95.10438606 73.63439006 -95.10438606 73.63439006 -134.5390625 119.09765625 C-137.55984102 127.85141766 -137.27088028 136.89592887 -133.265625 145.203125 C-131.19947023 147.64958847 -130.58047393 148.14283478 -127.328125 148.765625 C-109.19205803 147.74547123 -90.16596839 126.14118739 -78.265625 114.203125 C-77.48703125 113.44773437 -76.7084375 112.69234375 -75.90625 111.9140625 C-69.86771455 106.01366348 -64.52446601 99.79754468 -59.265625 93.203125 C-58.28073811 92.00608797 -57.29363325 90.81087345 -56.3046875 89.6171875 C-48.49692431 80.16606349 -41.15427058 70.42938729 -33.95117188 60.51171875 C-32.29391655 58.24187425 -30.61928545 55.98608774 -28.9375 53.734375 C-28.42203613 53.04158447 -27.90657227 52.34879395 -27.37548828 51.63500977 C-26.40844607 50.33613311 -25.43822311 49.0396166 -24.46435547 47.74584961 C-22.04353488 44.79112235 -22.04353488 44.79112235 -21.265625 41.203125 C-24.22714363 41.203125 -26.26283443 42.52524836 -28.92578125 43.80859375 Z " fill="#FF4D4D" transform="translate(1672.265625,118.796875)"/>
<path d="M0 0 C3.50141256 1.7736413 6.50202976 3.80162381 9.5625 6.25 C12.3911901 8.55911962 12.3911901 8.55911962 16 8.9375 C18.24217265 7.84844471 19.60596916 6.7894847 21.1875 4.875 C24.3498716 6.24696165 26.1811218 7.7315122 28.375 10.375 C35.9526481 19.33733818 35.9526481 19.33733818 44.125 27.75 C46.1875 29.875 46.1875 29.875 47.25 32.0625 C48.46091861 34.40360931 49.78927814 34.91571126 52.1875 35.875 C50.73890574 39.25505327 48.81419829 41.3337228 46.1875 43.875 C46.58582031 44.48085937 46.98414063 45.08671875 47.39453125 45.7109375 C52.64252004 54.01067646 56.77168558 62.82361561 55.1875 72.875 C53.15491933 79.72697005 48.62599488 83.55261414 43.1875 87.875 C41.91213124 88.95299026 40.64100155 90.03602409 39.375 91.125 C38.56095703 91.81335938 38.56095703 91.81335938 37.73046875 92.515625 C36.12461269 93.86101511 36.12461269 93.86101511 34.73828125 95.609375 C33.1875 96.875 33.1875 96.875 31.18359375 96.765625 C28.83502771 95.71773252 27.83145033 94.64014446 26.25 92.625 C24.36256234 90.28725995 22.53735207 88.2392998 20.375 86.125 C18.1875 83.875 18.1875 83.875 17.1875 80.875 C15.86381732 80.18937155 14.52900845 79.52505945 13.1875 78.875 C8.58417191 74.39525119 4.81598054 69.15278988 1.1875 63.875 C4.64261893 60.37590683 8.17502462 56.9993061 11.8125 53.6875 C12.75351563 52.82769531 13.69453125 51.96789062 14.6640625 51.08203125 C17.1875 48.875 17.1875 48.875 20.1875 46.875 C19.88947895 43.39808771 19.1757377 41.85987704 17 39.0625 C14.37287246 36.74026169 14.37287246 36.74026169 11.375 36.0625 C5.82392502 37.4774799 2.13285119 42.01639713 -1.02734375 46.66015625 C-2.18641094 49.9297637 -2.15100031 53.13589195 -2.125 56.5625 C-2.12153564 57.30999512 -2.11807129 58.05749023 -2.11450195 58.82763672 C-1.95914863 67.02788884 -0.48036709 74.86923795 1.1875 82.875 C1.60187811 84.93485865 2.01240658 86.99545834 2.42260742 89.05615234 C2.78740048 90.87486387 3.16284088 92.69143069 3.5390625 94.5078125 C4.85708831 101.35201879 5.39599303 107.9225829 5.4375 114.875 C5.458125 115.73867188 5.47875 116.60234375 5.5 117.4921875 C5.54144391 124.30971141 4.71541854 129.11285125 -0.046875 134.31640625 C-0.87703125 135.01636719 -1.7071875 135.71632813 -2.5625 136.4375 C-3.8928125 137.57251953 -3.8928125 137.57251953 -5.25 138.73046875 C-6.5184375 139.79201172 -6.5184375 139.79201172 -7.8125 140.875 C-8.4725 141.46925781 -9.1325 142.06351563 -9.8125 142.67578125 C-16.12700108 148.35601325 -21.10976029 150.4545689 -29.7109375 150.23046875 C-36.97835673 149.39755294 -42.95739474 146.13325837 -48.8125 141.875 C-49.93430857 141.12023479 -51.05928118 140.37014917 -52.1875 139.625 C-53.05375 139.0475 -53.92 138.47 -54.8125 137.875 C-57.7825 139.855 -57.7825 139.855 -60.8125 141.875 C-67.66564314 138.79929741 -72.24937664 132.43151236 -77.05859375 126.84765625 C-79.301406 124.32511686 -81.69408476 121.98109098 -84.1015625 119.6171875 C-86.83342016 116.8354329 -89.31118759 113.86437336 -91.8125 110.875 C-90.44266497 107.71384224 -89.8234362 106.8822908 -86.8125 104.875 C-87.13970638 101.38479859 -88.19467853 99.1487699 -90.125 96.3125 C-94.77307242 89.16473747 -98.07462575 80.42940788 -96.8125 71.875 C-93.91505168 63.53339878 -87.36191514 58.42317215 -80.8125 52.875 C-79.35266649 51.58502907 -77.89414661 50.29356853 -76.4375 49 C-73.62075241 46.54838636 -70.75581604 44.17446566 -67.8125 41.875 C-67.565 42.49375 -67.3175 43.1125 -67.0625 43.75 C-66.00841469 45.99327685 -66.00841469 45.99327685 -63.953125 46.76953125 C-61.44156445 48.06655978 -60.12681228 49.53094244 -58.3125 51.6875 C-57.70664063 52.40164062 -57.10078125 53.11578125 -56.4765625 53.8515625 C-55.19652741 55.40803709 -53.93740982 56.9817317 -52.6875 58.5625 C-50.82935478 60.93607924 -50.82935478 60.93607924 -48.5625 63.125 C-44.80164419 66.88585581 -41.32062228 70.87939671 -37.8125 74.875 C-42.08825208 80.04706656 -46.61383119 84.66175279 -51.5625 89.1875 C-52.89081309 90.41255651 -54.21894636 91.63780802 -55.546875 92.86328125 C-56.12663086 93.39477783 -56.70638672 93.92627441 -57.30371094 94.47387695 C-58.49730203 95.58229431 -59.66070819 96.72320819 -60.8125 97.875 C-60.67709104 102.74972241 -58.2008899 105.56190766 -54.8125 108.875 C-52.01350158 110.05561811 -52.01350158 110.05561811 -48.8125 109.875 C-46.42611808 108.18201962 -44.6383855 106.68176643 -42.625 104.625 C-42.10486328 104.12097656 -41.58472656 103.61695313 -41.04882812 103.09765625 C-39.61996477 101.7071149 -38.21523027 100.29189927 -36.8125 98.875 C-35.90564453 98.194375 -35.90564453 98.194375 -34.98046875 97.5 C-32.962345 94.69217565 -33.2854696 91.45442479 -33.3125 88.125 C-33.31531982 87.3407666 -33.31813965 86.5565332 -33.32104492 85.74853516 C-33.57397619 76.09577547 -35.93789744 66.8698404 -38.1796875 57.52099609 C-40.41469682 48.17569093 -42.07885832 39.0113646 -42.25 29.375 C-42.27231689 28.64498779 -42.29463379 27.91497559 -42.31762695 27.1628418 C-42.28848349 20.2857723 -40.02586555 15.24221719 -35.33984375 10.23046875 C-34.48519531 9.51503906 -33.63054687 8.79960937 -32.75 8.0625 C-31.89277344 7.33417969 -31.03554687 6.60585937 -30.15234375 5.85546875 C-29.38019531 5.20191406 -28.60804688 4.54835937 -27.8125 3.875 C-26.81132284 2.87617855 -25.81104334 1.87645454 -24.8125 0.875 C-17.57852859 -4.26492705 -7.81858082 -3.37571038 0 0 Z " fill="#FEFDFD" transform="translate(191.8125,187.125)"/>
<path d="M0 0 C1.83087914 -0.00855011 1.83087914 -0.00855011 3.69874573 -0.01727295 C6.2694514 -0.02666261 8.84016878 -0.0332327 11.41088867 -0.03710938 C15.27479953 -0.04677096 19.13816757 -0.0778359 23.00195312 -0.109375 C74.45569195 -0.3285882 74.45569195 -0.3285882 88.87890625 13.203125 C94.00919733 19.96949979 92.363862 29.13757927 91.41015625 37.1328125 C89.36743478 49.0243696 85.24085791 58.6341648 75.45703125 66.03515625 C70.73592584 69.14489657 65.37839464 70.93302875 60.12890625 72.953125 C57.87147102 73.84140331 55.61496413 74.73204434 53.359375 75.625 C51.70107666 76.28145508 51.70107666 76.28145508 50.00927734 76.95117188 C34.5590396 83.13030299 19.31229691 90.20787977 5.62890625 99.765625 C2.43531788 101.99107832 -0.12981954 103.10334314 -4.12109375 103.203125 C-4.45109375 102.873125 -4.78109375 102.543125 -5.12109375 102.203125 C-4.70720902 94.43337979 -1.08545067 90.75501037 4.36816406 85.55664062 C11.86122329 78.84340204 20.76999566 73.94849006 29.58642578 69.20849609 C34.14686893 66.73943186 34.14686893 66.73943186 37.87890625 63.203125 C34.6457836 61.58656368 31.10412387 62.01920999 27.55078125 62 C26.70276947 61.99298569 25.85475769 61.98597137 24.98104858 61.97874451 C22.19694831 61.96105679 19.41306095 61.95487485 16.62890625 61.953125 C15.20333405 61.95211288 15.20333405 61.95211288 13.7489624 61.95108032 C-19.51488269 61.98856249 -51.99151567 66.50444891 -84.12109375 75.203125 C-83.97961914 74.55230957 -83.83814453 73.90149414 -83.69238281 73.23095703 C-81.59238535 63.23474769 -80.04428526 51.9792917 -85.5546875 42.8203125 C-86.60322446 41.25630772 -87.6771194 39.70885974 -88.78125 38.18359375 C-90.12109375 36.203125 -90.12109375 36.203125 -91.12109375 33.203125 C-93.00172066 32.62723481 -93.00172066 32.62723481 -95.12109375 32.203125 C-96.33453234 31.45182004 -97.52138805 30.65647895 -98.68359375 29.828125 C-103.48495568 26.696802 -108.57801492 25.45643143 -114.12109375 24.203125 C-109.027605 19.93964653 -102.71133246 18.43490208 -96.49609375 16.390625 C-95.82804718 16.16969177 -95.16000061 15.94875854 -94.47171021 15.72113037 C-64.00160414 5.6996496 -32.11352799 0.11962721 0 0 Z " fill="#FE4D4D" transform="translate(489.12109375,8.796875)"/>
<path d="M0 0 C0.99 1.98 0.99 1.98 2 4 C0.71372289 5.17260611 -0.57919783 6.3379283 -1.875 7.5 C-2.59429687 8.1496875 -3.31359375 8.799375 -4.0546875 9.46875 C-6 11 -6 11 -8 11 C-8.31517578 11.82371094 -8.31517578 11.82371094 -8.63671875 12.6640625 C-10.48698017 15.83442448 -13.07531586 17.99196181 -15.8125 20.375 C-19.049906 23.20823046 -22.06826866 25.98499699 -24.76171875 29.3515625 C-25.86966797 30.66253906 -25.86966797 30.66253906 -27 32 C-27.66 32 -28.32 32 -29 32 C-29.23976563 32.53882813 -29.47953125 33.07765625 -29.7265625 33.6328125 C-31.33483789 36.62242871 -33.31111602 39.18029434 -35.375 41.875 C-37.75444553 44.98658262 -40.06855574 48.07544641 -42.1640625 51.3828125 C-43.07285156 52.67832031 -43.07285156 52.67832031 -44 54 C-44.66 54 -45.32 54 -46 54 C-46.24878906 54.82886719 -46.49757813 55.65773437 -46.75390625 56.51171875 C-48.17221832 60.48210333 -49.99530931 64.07987306 -51.9375 67.8125 C-56.95658408 77.71802496 -59.45025191 85.79651303 -60 97 C-58.515 97.495 -58.515 97.495 -57 98 C-55.64082143 98.96457834 -54.30915279 99.96854629 -53 101 C-52.278125 101.474375 -51.55625 101.94875 -50.8125 102.4375 C-48.23587196 104.65873107 -48.1334712 106.81626366 -47.76171875 110.11328125 C-47.5644202 115.95954875 -48.44798667 119.29598235 -52 124 C-54.625 125.3125 -54.625 125.3125 -57 126 C-57.99 126.99 -57.99 126.99 -59 128 C-59.66 127.67 -60.32 127.34 -61 127 C-61 127.66 -61 128.32 -61 129 C-64.5219721 129.08004482 -67.61981469 129.04005702 -71 128 C-71 127.34 -71 126.68 -71 126 C-72.11375 125.9071875 -72.11375 125.9071875 -73.25 125.8125 C-76.97323341 124.71245377 -77.9222908 123.25377101 -80 120 C-80.56640625 116.40625 -80.56640625 116.40625 -80.5625 112.5 C-80.58441406 111.2109375 -80.60632813 109.921875 -80.62890625 108.59375 C-79.85790221 104.18801265 -78.38866201 102.80935973 -75 100 C-74.071875 99.13375 -74.071875 99.13375 -73.125 98.25 C-70.17961803 96.51742237 -67.36522051 96.3235789 -64 96 C-64.0319043 95.39559082 -64.06380859 94.79118164 -64.09667969 94.16845703 C-64.29204129 87.5807116 -63.25890716 82.12386027 -61.25 75.875 C-60.99734375 75.03324219 -60.7446875 74.19148438 -60.484375 73.32421875 C-58.10047097 65.63612827 -55.11483641 59.23370687 -50 53 C-49.39542969 51.92492187 -48.79085938 50.84984375 -48.16796875 49.7421875 C-42.79538678 40.20678509 -34.930663 30.57173213 -27 23 C-26.34 23 -25.68 23 -25 23 C-24.7525 22.4225 -24.505 21.845 -24.25 21.25 C-22.81700012 18.67060021 -21.21575324 16.93878408 -19 15 C-18.34 15 -17.68 15 -17 15 C-16.67128906 14.15308594 -16.67128906 14.15308594 -16.3359375 13.2890625 C-14.57142461 10.26565737 -12.35089222 8.56009859 -9.625 6.375 C-8.19027344 5.21097656 -8.19027344 5.21097656 -6.7265625 4.0234375 C-4.51019423 2.37862552 -2.51177212 1.1070844 0 0 Z M-73.8125 104.625 C-75.73375072 107.10383768 -76.37562703 108.92948566 -76.5 112.0625 C-75.85298294 117.15775938 -74.73871908 119.59936519 -70.75 122.8125 C-67.23330403 124.33107326 -64.80039173 124.40718483 -61 124 C-57.33542256 122.33428298 -55.04367145 120.47424147 -53 117 C-52.28566879 114.35065178 -52.28566879 114.35065178 -52 112 C-52.53109375 111.63648438 -53.0621875 111.27296875 -53.609375 110.8984375 C-58.1959325 107.63428161 -61.05274712 104.76094696 -64 100 C-68.29575644 100 -70.72224428 101.74076133 -73.8125 104.625 Z " fill="#F6F4F5" transform="translate(341,46)"/>
<path d="M0 0 C0.639375 0.26941406 1.27875 0.53882813 1.9375 0.81640625 C4.66600924 2.38219848 5.87453491 4.27629191 7.625 6.875 C8.51058594 8.17050781 8.51058594 8.17050781 9.4140625 9.4921875 C14.75564191 17.93872439 15.31894491 27.60123296 13.31640625 37.31640625 C11.04138213 45.31203045 7.89320196 53.17120763 1.875 59.08984375 C-0.22813014 60.95291159 -0.22813014 60.95291159 -1 64 C-1.66 64 -2.32 64 -3 64 C-3.495 65.485 -3.495 65.485 -4 67 C-4.66 67 -5.32 67 -6 67 C-6.99 68.98 -6.99 68.98 -8 71 C-8.66 71 -9.32 71 -10 71 C-10.226875 71.5775 -10.45375 72.155 -10.6875 72.75 C-12.34761639 75.59591381 -14.39187957 76.99841921 -17 79 C-18.10214844 80.11955078 -18.10214844 80.11955078 -19.2265625 81.26171875 C-28.08367646 90.00655943 -38.11103613 97.03260172 -49 103 C-50.69139119 104.03533643 -52.37904396 105.07681039 -54.0625 106.125 C-61.26951895 110.446894 -68.49992018 114.43332801 -77 115 C-77.33 114.34 -77.66 113.68 -78 113 C-66.31457006 107.07093949 -66.31457006 107.07093949 -62.25 105.375 C-58.97276518 103.98847757 -55.84836817 102.42144263 -52.69921875 100.76953125 C-51 100 -51 100 -49 100 C-49 99.34 -49 98.68 -49 98 C-47.824375 97.62875 -47.824375 97.62875 -46.625 97.25 C-43.90126024 96.28320084 -43.90126024 96.28320084 -43.0625 94.125 C-41.48529913 90.97059826 -38.94999721 89.85097864 -36 88 C-34.321702 86.68133728 -32.65636866 85.34610491 -31 84 C-30.09121094 83.27941406 -29.18242187 82.55882813 -28.24609375 81.81640625 C-26.85583984 80.70072266 -26.85583984 80.70072266 -25.4375 79.5625 C-24.04337891 78.45068359 -24.04337891 78.45068359 -22.62109375 77.31640625 C-20.05633958 75.04979042 -18.07094031 72.71503406 -16 70 C-13.42921092 67.29390623 -10.8603408 64.88884268 -7.9375 62.5625 C-4.84277009 59.86284199 -3.13823976 57.49893779 -1 54 C-0.45214844 53.19433594 0.09570312 52.38867188 0.66015625 51.55859375 C6.95823564 42.15827568 11.8698788 32.59652907 10 21 C7.70112615 13.56426202 3.80945472 7.2070919 -2 2 C-4.50995496 0.56076801 -4.50995496 0.56076801 -7 0 C-7.75539063 -0.33773437 -8.51078125 -0.67546875 -9.2890625 -1.0234375 C-16.89483708 -3.76326984 -25.39427123 -1.9651883 -33 0 C-34.99708656 0.35036606 -36.99598989 0.69169075 -39 1 C-35.59423093 -3.84667136 -32.23709645 -5.97775902 -26.625 -7.75 C-17.22461231 -8.64527502 -7.50100039 -5.53645267 0 0 Z " fill="#F8F2F3" transform="translate(394,40)"/>
<path d="M0 0 C0.33 0 0.66 0 1 0 C1.495 8.415 1.495 8.415 2 17 C0.68 16.34 -0.64 15.68 -2 15 C-5.24304571 15.72968529 -6.86451007 16.87549574 -9.3125 19.125 C-11.52394659 22.89264975 -11.71733205 25.73057794 -11 30 C-9.75011855 32.87472735 -8.74531416 34.44101438 -6.25 36.3125 C-2.01144423 37.60761426 1.62013173 37.53313092 5.75 35.9375 C8.86098819 33.25859351 9.82486646 30.9171118 11 27 C10.9303934 22.89321047 10.74920563 20.84285633 8 17.75 C7.34 17.1725 6.68 16.595 6 16 C5.67 15.01 5.34 14.02 5 13 C6.32 13 7.64 13 9 13 C9.66 13.66 10.32 14.32 11 15 C11.680625 15.45375 12.36125 15.9075 13.0625 16.375 C15.75907736 18.63664553 15.8540965 20.70600342 16.23828125 24.11328125 C16.4355798 29.95954875 15.55201333 33.29598235 12 38 C9.375 39.3125 9.375 39.3125 7 40 C6.34 40.66 5.68 41.32 5 42 C4.34 41.67 3.68 41.34 3 41 C3 41.66 3 42.32 3 43 C-0.5219721 43.08004482 -3.61981469 43.04005702 -7 42 C-7 41.34 -7 40.68 -7 40 C-8.11375 39.9071875 -8.11375 39.9071875 -9.25 39.8125 C-12.97323341 38.71245377 -13.9222908 37.25377101 -16 34 C-16.56640625 30.40625 -16.56640625 30.40625 -16.5625 26.5 C-16.58441406 25.2109375 -16.60632813 23.921875 -16.62890625 22.59375 C-15.85790221 18.18801265 -14.38866201 16.80935973 -11 14 C-10.38125 13.4225 -9.7625 12.845 -9.125 12.25 C-6.17961803 10.51742237 -3.36522051 10.3235789 0 10 C0 6.7 0 3.4 0 0 Z " fill="#D6CDCD" transform="translate(277,132)"/>
<path d="M0 0 C0.99 0.33 1.98 0.66 3 1 C1.02 2.32 -0.96 3.64 -3 5 C-1.125 1.125 -1.125 1.125 0 0 Z M-5 5 C-4.34 5.33 -3.68 5.66 -3 6 C-3 6.99 -3 7.98 -3 9 C-5.24747476 10.61963768 -7.41760237 12.00648707 -9.8125 13.375 C-10.49376953 13.77203125 -11.17503906 14.1690625 -11.87695312 14.578125 C-27.2587656 23.41725104 -27.2587656 23.41725104 -36 24 C-36.33 23.34 -36.66 22.68 -37 22 C-25.31457006 16.07093949 -25.31457006 16.07093949 -21.25 14.375 C-17.97276518 12.98847757 -14.84836817 11.42144263 -11.69921875 9.76953125 C-10 9 -10 9 -8 9 C-8 8.34 -8 7.68 -8 7 C-7.01 6.34 -6.02 5.68 -5 5 Z " fill="#FCE9E9" transform="translate(353,131)"/>
<path d="M0 0 C0.33 0.99 0.66 1.98 1 3 C0.14277344 3.10957031 -0.71445312 3.21914063 -1.59765625 3.33203125 C-9.03384859 4.25722072 -9.03384859 4.25722072 -16.0625 6.6875 C-19 8 -19 8 -21.4375 7.6875 C-21.953125 7.460625 -22.46875 7.23375 -23 7 C-16.05853911 0.41451147 -9.43987457 -1.88797491 0 0 Z " fill="#F9F4F4" transform="translate(378,33)"/>
<path d="M0 0 C0.66 0.33 1.32 0.66 2 1 C-3.28 6.28 -8.56 11.56 -14 17 C-14 14 -14 14 -12.0625 11.875 C-11.04193705 10.91637873 -10.02104697 9.95810572 -9 9 C-7.39180447 7.39987234 -5.78787582 5.79544858 -4.1875 4.1875 C-2.09375 2.09375 -2.09375 2.09375 0 0 Z " fill="#FDE4E3" transform="translate(167,188)"/>
<path d="M0 0 C0.33 0 0.66 0 1 0 C3.641513 8.91510638 3.17875809 17.79395814 3 27 C2.67 27 2.34 27 2 27 C1.93941406 25.80761719 1.87882813 24.61523438 1.81640625 23.38671875 C1.73198851 21.82030075 1.64734113 20.25389512 1.5625 18.6875 C1.52318359 17.90181641 1.48386719 17.11613281 1.44335938 16.30664062 C1.40146484 15.54931641 1.35957031 14.79199219 1.31640625 14.01171875 C1.27974854 13.31522217 1.24309082 12.61872559 1.20532227 11.90112305 C1.04418847 9.7783428 1.04418847 9.7783428 0 7 C-0.66 6.67 -1.32 6.34 -2 6 C-1.34 6 -0.68 6 0 6 C0 4.02 0 2.04 0 0 Z " fill="#FA7C78" transform="translate(156,256)"/>
<path d="M0 0 C0.33 0 0.66 0 1 0 C1 4.95 1 9.9 1 15 C2.32 15.66 3.64 16.32 5 17 C4.01 17 3.02 17 2 17 C2 19.64 2 22.28 2 25 C1.67 25 1.34 25 1 25 C0.17463655 19.28094617 -0.12753701 13.7732851 -0.0625 8 C-0.05798828 7.22527344 -0.05347656 6.45054687 -0.04882812 5.65234375 C-0.03719758 3.76819476 -0.01926906 1.88408635 0 0 Z " fill="#FA7B77" transform="translate(189,236)"/>
<path d="M0 0 C2.31 0.33 4.62 0.66 7 1 C4.64641749 3.35358251 4.07031606 3.27871904 0.8671875 3.4140625 C-0.34130859 3.47207031 -0.34130859 3.47207031 -1.57421875 3.53125 C-2.83685547 3.57765625 -2.83685547 3.57765625 -4.125 3.625 C-5.39923828 3.68300781 -5.39923828 3.68300781 -6.69921875 3.7421875 C-8.79911684 3.83656494 -10.89952891 3.91937586 -13 4 C-9.68629 1.79086 -8.6553979 1.77518447 -4.8125 1.875 C-3.91144531 1.89304688 -3.01039063 1.91109375 -2.08203125 1.9296875 C-1.39496094 1.95289063 -0.70789063 1.97609375 0 2 C0 1.34 0 0.68 0 0 Z " fill="#FACDCD" transform="translate(379,34)"/>
<path d="M0 0 C0.99 0.33 1.98 0.66 3 1 C1.02 2.32 -0.96 3.64 -3 5 C-1.125 1.125 -1.125 1.125 0 0 Z M-5 5 C-4.34 5.33 -3.68 5.66 -3 6 C-3 6.99 -3 7.98 -3 9 C-4.32 9.33 -5.64 9.66 -7 10 C-6.34 8.35 -5.68 6.7 -5 5 Z " fill="#F0E6E6" transform="translate(353,131)"/>
<path d="M0 0 C0.66 0.33 1.32 0.66 2 1 C1.34 3.64 0.68 6.28 0 9 C-1.5625 7.75 -1.5625 7.75 -3 6 C-2.72963853 3.02602384 -2.14553974 2.14553974 0 0 Z " fill="#FDEDED" transform="translate(283,119)"/>
</svg>
